<?xml version="1.0" encoding="UTF-8" standalone="no"?>
<!-- Created with Inkscape (http://www.inkscape.org/) -->

<svg
   width="32"
   height="32"
   id="svg1325"
   sodipodi:version="0.32"
   inkscape:version="1.2.2 (b0a8486541, 2022-12-01)"
   sodipodi:docname="mate-panel.svg"
   version="1.0"
   inkscape:output_extension="org.inkscape.output.svg.inkscape"
   xmlns:inkscape="http://www.inkscape.org/namespaces/inkscape"
   xmlns:sodipodi="http://sodipodi.sourceforge.net/DTD/sodipodi-0.dtd"
   xmlns="http://www.w3.org/2000/svg"
   xmlns:svg="http://www.w3.org/2000/svg"
   xmlns:rdf="http://www.w3.org/1999/02/22-rdf-syntax-ns#"
   xmlns:cc="http://creativecommons.org/ns#"
   xmlns:dc="http://purl.org/dc/elements/1.1/">
  <sodipodi:namedview
     inkscape:window-height="715"
     inkscape:window-width="1366"
     inkscape:pageshadow="2"
     inkscape:pageopacity="0.0"
     borderopacity="1.0"
     bordercolor="#666666"
     pagecolor="#ffffff"
     id="base"
     width="32px"
     height="32px"
     borderlayer="true"
     inkscape:showpageshadow="false"
     inkscape:zoom="5.656854"
     inkscape:cx="7.9549516"
     inkscape:cy="16.705398"
     inkscape:window-x="0"
     inkscape:window-y="0"
     inkscape:current-layer="layer1"
     showgrid="true"
     inkscape:grid-points="true"
     gridtolerance="10000"
     showborder="false"
     inkscape:window-maximized="1"
     inkscape:pagecheckerboard="0"
     inkscape:deskcolor="#d1d1d1">
    <inkscape:grid
       id="GridFromPre046Settings"
       type="xygrid"
       originx="0"
       originy="0"
       spacingx="0.5"
       spacingy="0.5"
       color="#3f3fff"
       empcolor="#3f3fff"
       opacity="0.15"
       empopacity="0.38"
       empspacing="2" />
  </sodipodi:namedview>
  <defs
     id="defs1327">
    <linearGradient
       id="b-8"
       x1="-41.259998"
       x2="-2.994"
       y1="-0.88300002"
       y2="37.956001"
       gradientTransform="matrix(0.60689362,0,0,0.5479246,26.509838,4.8404409)"
       gradientUnits="userSpaceOnUse">
      <stop
         stop-color="#21c9fb"
         offset="0"
         id="stop6948" />
      <stop
         stop-color="#1a86f2"
         offset="1"
         id="stop6950" />
    </linearGradient>
    <linearGradient
       id="a-4"
       x1="4"
       x2="44"
       y1="4"
       y2="44"
       gradientTransform="matrix(0.57590663,0,0,0.52780304,-0.03567579,2.9743008)"
       gradientUnits="userSpaceOnUse">
      <stop
         offset="0"
         id="stop6953" />
      <stop
         stop-opacity="0"
         offset="1"
         id="stop6955" />
    </linearGradient>
  </defs>
  <sodipodi:namedview
     pagecolor="#ffffff"
     bordercolor="#666666"
     borderopacity="1.0"
     inkscape:pageopacity="0"
     inkscape:pageshadow="2"
     inkscape:zoom="1"
     inkscape:cx="29.202731"
     inkscape:cy="14.650528"
     inkscape:current-layer="layer1"
     showgrid="false"
     inkscape:grid-bbox="true"
     inkscape:document-units="px"
     stroke="#eeeeec"
     fill="#2e3436"
     inkscape:window-width="1270"
     inkscape:window-height="943"
     inkscape:window-x="0"
     inkscape:window-y="25"
     showborder="false"
     inkscape:grid-points="true"
     showguides="false"
     inkscape:guide-bbox="true"
     inkscape:showpageshadow="false"
     id="namedview5">
    <sodipodi:guide
       orientation="vertical"
       position="31.875"
       id="guide2260"
       inkscape:locked="false" />
    <inkscape:grid
       id="grid6"
       type="xygrid"
       originx="0px"
       originy="0px"
       spacingx="0.5px"
       spacingy="0.5px"
       color="#3f3fff"
       empcolor="#3f3fff"
       opacity="0.15"
       empopacity="0.38"
       empspacing="2" />
  </sodipodi:namedview>
  <metadata
     id="metadata1330">
    <rdf:RDF>
      <cc:Work
         rdf:about="">
        <dc:format>image/svg+xml</dc:format>
        <dc:type
           rdf:resource="http://purl.org/dc/dcmitype/StillImage" />
        <dc:title>Mate Panel</dc:title>
        <dc:creator>
          <cc:Agent>
            <dc:title>Lapo Calamandrei</dc:title>
          </cc:Agent>
        </dc:creator>
        <dc:subject>
          <rdf:Bag>
            <rdf:li>panel</rdf:li>
            <rdf:li>menu</rdf:li>
          </rdf:Bag>
        </dc:subject>
        <dc:contributor>
          <cc:Agent>
            <dc:title>Andreas Nilsson</dc:title>
          </cc:Agent>
        </dc:contributor>
        <cc:license
           rdf:resource="http://creativecommons.org/licenses/GPL/2.0/" />
      </cc:Work>
      <cc:License
         rdf:about="http://creativecommons.org/licenses/GPL/2.0/">
        <cc:permits
           rdf:resource="http://web.resource.org/cc/Reproduction" />
        <cc:permits
           rdf:resource="http://web.resource.org/cc/Distribution" />
        <cc:requires
           rdf:resource="http://web.resource.org/cc/Notice" />
        <cc:permits
           rdf:resource="http://web.resource.org/cc/DerivativeWorks" />
        <cc:requires
           rdf:resource="http://web.resource.org/cc/ShareAlike" />
        <cc:requires
           rdf:resource="http://web.resource.org/cc/SourceCode" />
      </cc:License>
    </rdf:RDF>
  </metadata>
  <g
     id="layer1"
     inkscape:label="Layer 1"
     inkscape:groupmode="layer">
    <rect
       style="opacity:1;fill:#d3d7cf;fill-opacity:1;stroke:#888a85;stroke-width:0.99999928;stroke-linecap:butt;stroke-linejoin:round;stroke-miterlimit:4;stroke-dasharray:none;stroke-dashoffset:0;stroke-opacity:1"
       id="rect1333"
       width="32.499992"
       height="25"
       x="0.49999988"
       y="3.5" />
    <rect
       style="opacity:0.61176471;fill:none;fill-opacity:1;stroke:#eeeeec;stroke-width:0.99999952;stroke-linecap:butt;stroke-linejoin:round;stroke-miterlimit:4;stroke-dasharray:none;stroke-dashoffset:0;stroke-opacity:1"
       id="rect2210"
       width="31.351635"
       height="23"
       x="1.4999995"
       y="4.5" />
    <path
       d="M 2.0836642,4.9166041 V 26.197622 H 25.30422 V 4.9166041 Z"
       fill="url(#b)"
       stroke-linejoin="bevel"
       stroke-width="1.11148"
       id="path6960"
       style="fill:url(#b-8)" />
    <path
       d="m 4.5715808,23.917513 2.303628,2.280109 H 25.30422 v -16.7208 l -2.487917,-2.2801088 -0.161399,16.6203228 -9.347137,0.07665 -0.05058,0.325121 -0.240906,0.429473 0.02704,-1.088341 -8.2930564,-0.06559 -0.096067,0.04325 8.1389054,-0.03276 0.07149,0.412692 z"
       fill="url(#a)"
       fill-rule="evenodd"
       opacity="0.2"
       id="path6962"
       sodipodi:nodetypes="ccccccccccccccc"
       style="fill:url(#a-4);stroke-width:0.793915" />
    <rect
       x="2.0836763"
       y="25.437572"
       width="23.220537"
       height="0.76003635"
       opacity="0.15"
       id="rect6964"
       style="stroke-width:0.793915" />
    <path
       id="path0-0-7-5"
       d="m 12.159429,6.9095334 c -0.01195,0.012085 -0.105057,0.025917 -0.207045,0.03139 -0.101905,0.00608 -0.203105,0.017937 -0.224841,0.027513 -0.02164,0.00935 -0.07497,0.019837 -0.11835,0.022725 -0.106342,0.00684 -0.123965,-0.017177 0.338771,0.4703637 0.434631,0.4579143 0.465232,0.4784961 0.424853,0.2859105 -0.01319,-0.062019 -0.02388,-0.1690017 -0.02422,-0.2377394 -2.16e-4,-0.068859 -0.0102,-0.1642894 -0.02181,-0.2123541 -0.01178,-0.047958 -0.02704,-0.1571679 -0.034,-0.2426112 -0.0131,-0.1603297 -0.06286,-0.2146191 -0.133286,-0.1452886 m 0.312855,-0.00684 c -0.01833,0.00684 -0.01443,0.024245 0.01476,0.064603 0.02172,0.030021 0.03956,0.061487 0.03956,0.069847 0,0.00806 0.01617,0.033062 0.03607,0.055255 0.04793,0.053354 0.301611,0.4491434 0.342868,0.5350048 0.01799,0.037318 0.04926,0.1028481 0.06941,0.1455697 0.02016,0.042562 0.06236,0.1169088 0.0938,0.1649659 0.164294,0.2510476 0.425905,0.6915873 0.507169,0.8539913 0.241809,0.48308 0.272775,0.552706 0.272775,0.613038 0,0.03511 0.0083,0.06863 0.01725,0.07441 0.0094,0.0061 0.02256,0.03686 0.0291,0.06901 0.0088,0.04393 0.02281,0.05852 0.05531,0.05852 0.0238,0 0.05739,0.01208 0.07447,0.02683 0.01708,0.01467 0.132208,0.05001 0.255749,0.07816 0.123542,0.02827 0.249257,0.06848 0.279319,0.08956 0.03002,0.02105 0.06411,0.03838 0.07563,0.03838 0.03616,0 0.19074,0.09225 0.341052,0.203454 0.07962,0.0589 0.150677,0.107127 0.157975,0.107127 0.01136,0 0.172653,0.221619 0.247796,0.340413 0.01327,0.0209 0.07737,0.120283 0.142383,0.220585 0.140527,0.216808 0.139357,0.222835 -0.03276,0.166904 -0.558132,-0.181193 -0.909964,-0.189728 -1.239672,-0.02994 -0.158231,0.07656 -0.184155,0.120655 -0.171591,0.292028 0.0058,0.06932 0.01725,0.134451 0.02687,0.144559 0.0097,0.01079 0.01758,0.07844 0.01758,0.151734 0,0.07334 0.01,0.151665 0.02231,0.174177 0.02089,0.03853 0.04462,0.208744 0.06941,0.498227 0.01036,0.120405 0.05473,0.216694 0.146323,0.316859 0.01692,0.01854 0.06949,0.09292 0.116825,0.165285 0.214723,0.328328 0.309729,0.332197 1.085585,0.04408 0.09224,-0.03413 0.220977,-0.07966 0.286086,-0.100834 0.06519,-0.02121 0.136147,-0.04591 0.15785,-0.05487 0.02164,-0.0093 0.101614,-0.038 0.177545,-0.06475 0.07597,-0.0266 0.204781,-0.07175 0.286153,-0.10015 0.08135,-0.02843 0.24122,-0.08528 0.355175,-0.126288 0.113955,-0.04097 0.295938,-0.106329 0.404452,-0.145197 0.108523,-0.03884 0.24175,-0.08674 0.296004,-0.106337 0.05424,-0.01961 0.178542,-0.06324 0.276209,-0.09707 0.09768,-0.03382 0.195351,-0.06886 0.217062,-0.07802 0.02172,-0.0093 0.103837,-0.03914 0.182497,-0.06658 0.07862,-0.02751 0.207426,-0.07266 0.286086,-0.100165 0.0787,-0.02751 0.160852,-0.05776 0.182505,-0.06704 0.02173,-0.0093 0.114975,-0.04264 0.207218,-0.07403 0.180474,-0.06156 0.327436,-0.114894 0.542573,-0.197381 0.02164,-0.0081 0.06609,-0.02402 0.09867,-0.03489 0.239736,-0.07991 0.713427,-0.252719 0.81369,-0.296802 0.04603,-0.02022 0.08905,-0.03679 0.09569,-0.03679 0.0067,0 0.03997,-0.01208 0.07414,-0.02721 0.03417,-0.01512 0.104211,-0.04233 0.155627,-0.06073 0.154184,-0.05518 0.156864,-0.0735 0.02836,-0.19593 -0.06162,-0.05875 -0.11204,-0.113565 -0.11204,-0.121864 0,-0.0081 -0.02214,-0.04059 -0.04926,-0.0716 -0.02712,-0.03108 -0.04926,-0.06384 -0.04926,-0.07281 0,-0.0093 -0.05324,-0.07365 -0.118433,-0.143503 -0.0651,-0.06985 -0.118367,-0.138973 -0.118367,-0.153421 0,-0.01444 -0.01351,-0.02622 -0.03019,-0.02622 -0.01659,0 -0.03698,-0.01786 -0.0452,-0.03975 -0.0083,-0.02204 -0.03673,-0.05047 -0.06344,-0.06369 -0.02679,-0.01338 -0.05937,-0.04537 -0.07257,-0.07175 -0.03782,-0.07547 -0.519802,-0.529267 -0.60741,-0.571738 -0.04337,-0.02105 -0.139439,-0.09518 -0.213372,-0.164806 -0.07397,-0.06962 -0.14653,-0.130992 -0.161217,-0.136297 -0.01468,-0.0061 -0.08398,-0.06331 -0.153985,-0.128849 -0.06991,-0.06551 -0.161632,-0.134656 -0.203785,-0.153604 -0.04213,-0.01892 -0.09625,-0.05161 -0.120241,-0.07281 -0.02405,-0.02121 -0.06063,-0.04803 -0.08135,-0.05982 -0.02073,-0.01209 -0.08784,-0.05427 -0.149101,-0.09438 -0.06137,-0.04005 -0.118599,-0.072812 -0.127324,-0.072812 -0.0087,0 -0.03673,-0.021813 -0.06228,-0.04849 -0.02546,-0.026677 -0.05681,-0.04849 -0.06958,-0.04849 -0.01277,0 -0.04918,-0.024017 -0.08119,-0.053354 -0.06734,-0.061867 -0.257392,-0.1608389 -0.308336,-0.1604361 -0.01907,1.748e-4 -0.07007,-0.021433 -0.113059,-0.048262 -0.04312,-0.026677 -0.09457,-0.04849 -0.11466,-0.04849 -0.02007,0 -0.0802,-0.021661 -0.133585,-0.048414 -0.05341,-0.026677 -0.107876,-0.04849 -0.121136,-0.04849 -0.01319,-4.56e-5 -0.05565,-0.017633 -0.0943,-0.038838 -0.03865,-0.021357 -0.0833,-0.038762 -0.09928,-0.038762 -0.01592,0 -0.02902,-0.00935 -0.02902,-0.019457 0,-0.010793 -0.01559,-0.019457 -0.0345,-0.019609 -0.01899,-2.28e-5 -0.06004,-0.013377 -0.09107,-0.029033 -0.03102,-0.016037 -0.06884,-0.028957 -0.08388,-0.028957 -0.01501,0 -0.02721,-0.00806 -0.02721,-0.019305 0,-0.010793 -0.03442,-0.019457 -0.07655,-0.019457 -0.04387,0 -0.08697,-0.012084 -0.101059,-0.029033 -0.01352,-0.015961 -0.04072,-0.029033 -0.06038,-0.029033 -0.01974,0 -0.04146,-0.00935 -0.0481,-0.019457 -0.0075,-0.010793 -0.03334,-0.019457 -0.05912,-0.019457 -0.02579,0 -0.0525,-0.00806 -0.05921,-0.019305 -0.0075,-0.010792 -0.03251,-0.019457 -0.05739,-0.019457 -0.04884,0 -0.161698,-0.049326 -0.180217,-0.078838 -0.0067,-0.00935 -0.03699,-0.018165 -0.06834,-0.018165 -0.03126,0 -0.06236,-0.00806 -0.069,-0.019305 -0.0075,-0.010792 -0.034,-0.019457 -0.06063,-0.019457 -0.0267,0 -0.06386,-0.00806 -0.08268,-0.018545 -0.01882,-0.010793 -0.06975,-0.032682 -0.113225,-0.050162 -0.04345,-0.017405 -0.09429,-0.039674 -0.113134,-0.049478 -0.01882,-0.00935 -0.07389,-0.017861 -0.122149,-0.017861 -0.04835,0 -0.09341,-0.00935 -0.10013,-0.019457 -0.0075,-0.010793 -0.04611,-0.019305 -0.08748,-0.019305 -0.04296,0 -0.08596,-0.012085 -0.09996,-0.029033 -0.01559,-0.018545 -0.05912,-0.029033 -0.119585,-0.029033 -0.05233,0 -0.100579,-0.00806 -0.107288,-0.019457 -0.0067,-0.010792 -0.05108,-0.019457 -0.09863,-0.019457 -0.0476,0 -0.09197,-0.00935 -0.09869,-0.019457 -0.0075,-0.010868 -0.04171,-0.019305 -0.07754,-0.019305 -0.03607,0 -0.07655,-0.013453 -0.09005,-0.029185 -0.01708,-0.020293 -0.06252,-0.029033 -0.149242,-0.029033 -0.0685,0 -0.130143,-0.00806 -0.136861,-0.019305 -0.0075,-0.010793 -0.03782,-0.019457 -0.06908,-0.019457 -0.03118,0 -0.06228,-0.00942 -0.069,-0.019457 -0.0075,-0.010792 -0.04113,-0.019305 -0.0763,-0.019305 -0.03533,0 -0.08136,-0.013377 -0.102461,-0.028577 -0.03774,-0.028121 -1.455273,-0.043702 -1.523186,-0.016797 M 11.196438,7.044421 c -0.0067,0.00935 -0.06021,0.024093 -0.119818,0.03139 -0.05971,0.00684 -0.1133,0.021053 -0.119212,0.030477 -0.0067,0.00935 -0.04968,0.017177 -0.09724,0.017177 -0.0476,0 -0.09197,0.00935 -0.09866,0.019457 -0.0075,0.010793 -0.06386,0.019457 -0.127,0.019457 -0.0758,0 -0.122795,0.00935 -0.138378,0.028045 -0.01302,0.015429 -0.04138,0.030629 -0.06303,0.033974 -0.04055,0.00684 0.296569,0.3065454 0.518632,0.4621477 0.05333,0.037318 0.229543,0.1702557 0.391663,0.2952893 0.309407,0.2387426 0.329102,0.2471638 0.284751,0.1218718 -0.01493,-0.042638 -0.02754,-0.1115505 -0.02778,-0.1529801 -9.6e-5,-0.041403 -0.009,-0.1069718 -0.0194,-0.1455056 C 11.539166,7.6519673 11.43731,7.2449451 11.42065,7.1645256 11.395024,7.0410349 11.248088,6.962432 11.196455,7.0446527 m -0.987413,0.2343116 c -0.0075,0.010792 -0.03342,0.019457 -0.05921,0.019457 -0.02587,0 -0.05175,0.00806 -0.05747,0.016645 -0.0058,0.00935 -0.06162,0.021813 -0.1241721,0.028121 -0.062533,0.00684 -0.1168321,0.020749 -0.120606,0.031921 -0.00418,0.010793 -0.023388,0.020369 -0.043455,0.020369 -0.020155,0 -0.042208,0.00935 -0.048849,0.019457 -0.00748,0.010869 -0.037819,0.019305 -0.069077,0.019305 -0.031186,0 -0.062364,0.00935 -0.068997,0.019457 -0.00748,0.010792 -0.032094,0.019457 -0.05639,0.019457 -0.024296,0 -0.054654,0.010792 -0.067341,0.022649 -0.029522,0.029033 -0.1594088,0.0738 -0.2154945,0.07418 -0.023806,1.672e-4 -0.04868,0.00935 -0.055402,0.019685 -0.00748,0.010793 -0.028445,0.019457 -0.048101,0.019457 -0.019737,0 -0.046936,0.013377 -0.06037,0.029033 -0.013515,0.015961 -0.050176,0.029033 -0.081355,0.029033 -0.031266,0 -0.05672,0.00806 -0.05672,0.017101 0,0.00935 -0.028862,0.028045 -0.064189,0.041422 -0.1164599,0.044234 -0.389185,0.1772784 -0.4005877,0.1954509 -0.00667,0.00935 -0.036741,0.017861 -0.068089,0.017861 -0.031186,0 -0.062284,0.00935 -0.068997,0.019457 -0.00748,0.010793 -0.031676,0.019457 -0.055482,0.019609 -0.023806,1.216e-4 -0.087658,0.039142 -0.1418863,0.086743 -0.054316,0.047578 -0.1084234,0.086887 -0.1202988,0.087161 -0.011939,2.508e-4 -0.038068,0.018317 -0.058135,0.040206 -0.020155,0.021813 -0.068169,0.053963 -0.106682,0.071595 -0.038566,0.017633 -0.097551,0.052138 -0.13113,0.076703 -0.03359,0.024625 -0.069744,0.044766 -0.080443,0.044766 -0.010532,0 -0.040223,0.021813 -0.065676,0.04849 -0.025462,0.02668 -0.056728,0.04849 -0.069495,0.04849 -0.012767,0 -0.039226,0.01748 -0.058794,0.03876 -0.019657,0.02136 -0.043784,0.03884 -0.053657,0.03884 -0.00978,0 -0.047105,0.02181 -0.082682,0.04849 -0.035576,0.02668 -0.071899,0.04849 -0.080858,0.04849 -0.00879,0 -0.072148,0.05031 -0.1405669,0.111565 -0.1779853,0.159722 -0.2861354,0.247841 -0.3419148,0.278736 -0.026788,0.0149 -0.080027,0.05526 -0.1183661,0.08984 -0.038317,0.03458 -0.079282,0.06301 -0.090743,0.06308 -0.011611,1.37e-4 -0.047022,0.02706 -0.078867,0.05989 -0.031845,0.03291 -0.095693,0.07687 -0.1418522,0.09749 -0.090287,0.04059 -0.8336097,0.7544958 -0.8336097,0.8005538 0,0.01398 -0.022889,0.04644 -0.050753,0.07213 -0.027864,0.02577 -0.069496,0.07977 -0.092401,0.119866 -0.022972,0.04005 -0.048929,0.07289 -0.057803,0.07289 -0.00879,0 -0.016088,0.01338 -0.016088,0.02865 0,0.01581 -0.022225,0.04302 -0.049427,0.06042 -0.027202,0.0174 -0.049427,0.04317 -0.049427,0.05723 0,0.01414 -0.022225,0.04264 -0.04926,0.06369 -0.077291,0.05982 -0.060125,0.08648 0.093778,0.146399 0.078618,0.03063 0.1873567,0.07524 0.241643,0.09907 0.054237,0.02387 0.2895437,0.115305 0.5228771,0.203097 0.233292,0.08782 0.4419867,0.166593 0.4636399,0.175189 0.021645,0.0081 0.079448,0.03063 0.1282769,0.04933 0.048849,0.01855 0.1065582,0.04074 0.1282606,0.04948 0.021643,0.0081 0.2081728,0.0779 0.414363,0.154181 0.2061902,0.07633 0.4281454,0.159068 0.4932292,0.184096 0.065186,0.02508 0.2293944,0.08634 0.3650772,0.136115 0.1356161,0.04993 0.2643654,0.09788 0.2860855,0.106732 0.021643,0.0093 0.2081475,0.07885 0.4143545,0.155443 0.2061733,0.07671 0.4281374,0.15979 0.4932791,0.184841 0.065098,0.02493 0.2249323,0.08433 0.3551666,0.131919 0.1302094,0.04758 0.4010026,0.147728 0.6017695,0.22263 0.564972,0.210492 0.58738,0.217583 0.687494,0.217583 0.136951,0 0.248559,-0.07632 0.357529,-0.244245 0.04785,-0.07388 0.102187,-0.151681 0.12069,-0.173045 0.05764,-0.06635 0.235208,-0.433107 0.235208,-0.485762 0,-0.01573 0.0088,-0.02858 0.01974,-0.02858 0.01078,0 0.01974,-0.02136 0.01974,-0.04735 0,-0.02607 0.0088,-0.05282 0.01974,-0.05936 0.01078,-0.0068 0.01974,-0.02789 0.01974,-0.04735 0,-0.01946 0.01335,-0.04613 0.02961,-0.05951 0.01625,-0.01338 0.02961,-0.04059 0.02961,-0.0608 0,-0.02022 0.0083,-0.05191 0.01741,-0.0703 0.0095,-0.01854 0.02853,-0.05997 0.04222,-0.09198 0.01368,-0.03207 0.03591,-0.08446 0.0496,-0.116376 0.01368,-0.03207 0.03509,-0.08045 0.04768,-0.107401 0.0379,-0.08164 -0.0075,-0.293344 -0.08851,-0.418993 -0.03757,-0.05784 -0.06834,-0.109681 -0.06834,-0.115168 0,-0.0061 -0.05183,-0.09051 -0.115149,-0.188847 -0.105438,-0.163856 -0.154889,-0.248668 -0.324947,-0.5573188 -0.03242,-0.05868 -0.06834,-0.118649 -0.08003,-0.133265 -0.02331,-0.02903 -0.02231,-0.01794 -0.0408,-0.45875 -0.01244,-0.295024 -0.02239,-0.362348 -0.08069,-0.543457 -0.01368,-0.04264 -0.03657,-0.116908 -0.05059,-0.164973 C 10.976151,8.572083 10.87291,8.3487003 10.540359,7.6668564 10.360789,7.2986796 10.266306,7.1878967 10.2093,7.2786755 M 4.3430905,11.836598 c -0.033919,0.03914 -0.062032,0.09023 -0.062364,0.113709 -2.322e-4,0.02349 -0.00954,0.04788 -0.020318,0.05442 -0.010781,0.0068 -0.019737,0.02493 -0.019737,0.04097 0,0.01581 -0.022226,0.05237 -0.049344,0.08112 -0.027201,0.02881 -0.049261,0.0678 -0.049261,0.08673 0,0.01893 -0.00829,0.04955 -0.018079,0.0681 -0.054569,0.102157 -0.1200669,0.254856 -0.1200669,0.280081 0,0.01596 -0.017747,0.04477 -0.039475,0.06407 -0.023718,0.02136 -0.039475,0.05982 -0.039475,0.09706 0,0.06232 -0.045944,0.174034 -0.080194,0.194821 -0.010201,0.0068 -0.018576,0.03648 -0.018576,0.06719 0,0.03078 -0.00879,0.06141 -0.019737,0.06795 -0.01078,0.0068 -0.01982,0.04507 -0.01982,0.08526 0,0.04036 -0.00663,0.07951 -0.014098,0.08715 -0.026621,0.02607 -0.084556,0.196515 -0.084556,0.248646 0,0.02865 -0.00879,0.05761 -0.01982,0.06422 -0.01078,0.0068 -0.019737,0.03709 -0.019737,0.06787 0,0.03078 -0.00887,0.06156 -0.01982,0.06795 -0.010781,0.0068 -0.019737,0.04036 -0.019737,0.07509 0,0.03458 -0.013103,0.08004 -0.029026,0.100697 -0.016669,0.02166 -0.029109,0.08098 -0.029606,0.139588 -2.405e-4,0.05602 -0.00954,0.101906 -0.020318,0.101906 -0.01078,0 -0.019737,0.04621 -0.019737,0.102833 0,0.05655 -0.00829,0.11114 -0.018245,0.121332 -0.00995,0.01087 -0.022391,0.08394 -0.027533,0.163978 -0.0058,0.08018 -0.023137,0.232928 -0.039973,0.339691 -0.03624,0.229014 -0.046773,1.376874 -0.012937,1.39744 0.011362,0.0068 0.01982,0.10484 0.01982,0.227859 0,0.11865 0.00846,0.242619 0.018494,0.27543 0.010201,0.03291 0.037401,0.19498 0.060373,0.360432 0.023055,0.165445 0.051169,0.327066 0.062447,0.359056 0.011195,0.03207 0.027864,0.08875 0.036905,0.126166 0.00904,0.03747 0.027118,0.102841 0.040055,0.145547 0.012938,0.04279 0.027699,0.127375 0.032592,0.188269 0.00498,0.06171 0.021396,0.120678 0.036821,0.133417 0.015425,0.01208 0.027948,0.04302 0.027948,0.06772 0,0.02485 0.00879,0.05039 0.019737,0.05693 0.010781,0.0068 0.01982,0.03709 0.01982,0.06795 0,0.03078 0.00887,0.06141 0.019737,0.06795 0.01078,0.0068 0.019737,0.03709 0.019737,0.06787 0,0.03078 0.00846,0.06095 0.018577,0.06719 0.033006,0.02022 0.080111,0.131379 0.081604,0.192973 7.218e-4,0.03306 0.018494,0.08636 0.039226,0.118406 0.020816,0.03207 0.043041,0.07121 0.049427,0.08727 0.00663,0.01611 0.019737,0.04423 0.029772,0.06293 0.00995,0.01854 0.018327,0.04697 0.018327,0.06331 0,0.01619 0.00829,0.04477 0.018327,0.06339 0.00995,0.01855 0.02347,0.04682 0.029772,0.06286 0.00663,0.01604 0.028528,0.05525 0.049344,0.08729 0.020816,0.03207 0.03848,0.0735 0.039309,0.09224 7.298e-4,0.01862 0.010366,0.03397 0.02123,0.03397 0.010781,0 0.019737,0.01208 0.019737,0.02751 0,0.0152 0.014844,0.0567 0.032923,0.09224 0.018079,0.03557 0.041465,0.08153 0.051665,0.101898 0.040636,0.08126 0.1185906,0.216094 0.134928,0.233514 0.00954,0.01079 0.017333,0.03002 0.017333,0.04423 0,0.01414 0.027699,0.05579 0.061534,0.09225 0.069413,0.07494 0.1159701,0.155169 0.1159701,0.199456 0,0.01634 0.031099,0.06704 0.069081,0.112623 0.037982,0.0456 0.068998,0.09064 0.068998,0.100302 0,0.0093 0.027367,0.04302 0.060788,0.07433 0.033421,0.03139 0.078618,0.09533 0.1003792,0.142081 0.021728,0.04682 0.056559,0.103122 0.077374,0.124973 0.020733,0.02204 0.037733,0.0507 0.037733,0.06407 0,0.01345 0.017747,0.02957 0.039475,0.03648 0.021644,0.0068 0.039475,0.02037 0.039475,0.03032 0,0.0093 0.029689,0.05085 0.06593,0.09077 0.036324,0.04005 0.074057,0.08743 0.083826,0.105258 0.00979,0.01786 0.064437,0.08125 0.121543,0.140827 0.056973,0.05951 0.1035802,0.118528 0.1035802,0.130871 0,0.03169 0.8301764,0.847889 0.8780356,0.863089 0.021645,0.0068 0.1000142,0.07023 0.1739966,0.140782 0.073974,0.07053 0.1495154,0.133941 0.16771,0.140781 0.018242,0.0068 0.059212,0.03967 0.091107,0.07281 0.031845,0.03306 0.067341,0.06042 0.07895,0.06073 0.011448,2.05e-4 0.055233,0.03078 0.097136,0.06795 0.041879,0.03709 0.084158,0.06742 0.093869,0.06742 0.0097,0 0.045111,0.02402 0.078451,0.05335 0.033421,0.02941 0.1052389,0.07765 0.1596331,0.107271 0.054405,0.02964 0.1119231,0.06673 0.1279374,0.08246 0.015919,0.01573 0.041718,0.02858 0.057387,0.02858 0.015509,0 0.028195,0.0081 0.028195,0.01718 0,0.0093 0.029361,0.03078 0.065186,0.04758 0.035825,0.0168 0.081604,0.04826 0.1017062,0.07008 0.019987,0.02181 0.052909,0.03967 0.072896,0.03967 0.019987,0 0.036404,0.0093 0.036404,0.01946 0,0.01079 0.012027,0.01946 0.026539,0.01946 0.040882,0 0.1405589,0.05351 0.1804656,0.09694 0.019737,0.02143 0.05225,0.03891 0.072317,0.03891 0.019987,0 0.036404,0.0093 0.036404,0.01931 0,0.01079 0.017253,0.01946 0.038229,0.01946 0.021064,0 0.043205,0.0081 0.049179,0.01748 0.010202,0.01611 0.3741584,0.195405 0.4846713,0.238643 0.027037,0.01079 0.074472,0.03169 0.1052059,0.04667 0.030768,0.01505 0.068498,0.02744 0.083826,0.02744 0.015428,0 0.028026,0.0093 0.028026,0.01946 0,0.01079 0.013515,0.01946 0.029859,0.01946 0.03002,0 0.046357,0.0068 0.1606365,0.06521 0.034169,0.01763 0.080276,0.03192 0.1024523,0.03192 0.022061,0 0.045698,0.0093 0.05233,0.01946 0.04097,0.06529 0.2466524,-0.07084 0.2466524,-0.163141 0,-0.0068 0.018821,-0.03253 0.041959,-0.05875 0.023138,-0.02615 0.051912,-0.06476 0.064189,-0.08593 0.012188,-0.0212 0.1374829,-0.207346 0.2784317,-0.413627 0.1409323,-0.206319 0.2679823,-0.396823 0.2822963,-0.423241 0.01443,-0.02645 0.03284,-0.0526 0.04122,-0.05822 0.0083,-0.0061 0.0549,-0.07129 0.10378,-0.146026 0.04885,-0.07471 0.101432,-0.149302 0.116981,-0.165734 0.01559,-0.01649 0.03707,-0.04355 0.04793,-0.06019 0.06759,-0.103631 0.494242,-0.715597 0.520067,-0.745976 0.01708,-0.02014 0.109907,-0.155443 0.150775,-0.219727 0.01078,-0.01718 0.0476,-0.0703 0.08194,-0.118406 0.101499,-0.142666 0.09735,-0.149734 -0.261182,-0.44529 -0.0866,-0.07121 -0.490136,-0.415238 -0.501415,-0.427269 -0.0058,-0.0061 -0.05432,-0.04492 -0.108547,-0.08701 -0.05432,-0.04211 -0.143729,-0.11624 -0.198903,-0.164974 -0.13769,-0.121621 -0.3002252,-0.258701 -0.5180753,-0.436664 L 9.4858,19.425229 9.496999,19.325209 c 0.033252,-0.298208 0.051165,-0.426373 0.080196,-0.575599 0.017752,-0.09078 0.040392,-0.230465 0.050337,-0.310543 0.00995,-0.08002 0.023798,-0.172908 0.030599,-0.206312 0.017004,-0.08339 0.01874,-0.08312 -0.3366979,-0.06202 -0.1736157,0.01079 -0.3546778,0.02029 -0.4023798,0.02227 l -0.08677,0.0038 -0.1464134,-0.203774 c -0.080526,-0.11209 -0.1519544,-0.216549 -0.1586716,-0.2321 -0.00748,-0.01558 -0.029522,-0.04773 -0.050505,-0.07159 -0.021144,-0.02387 -0.048183,-0.06111 -0.06037,-0.08286 -0.012188,-0.02166 -0.095868,-0.145547 -0.1859719,-0.275035 -0.1918434,-0.275748 -0.1916191,-0.247011 -0.00418,-0.438943 0.4797543,-0.490216 0.4802351,-0.491052 0.2749075,-0.491052 -0.076627,0 -0.1764517,-0.0093 -0.2219556,-0.01984 -0.045529,-0.01079 -0.1848359,-0.02865 -0.3096627,-0.03945 -0.4415059,-0.038 -0.4039219,-0.02592 -0.5008429,-0.160892 -0.047273,-0.06567 -0.0892,-0.128059 -0.093355,-0.138791 -0.00418,-0.01087 -0.041718,-0.06886 -0.083387,-0.129517 -0.1025191,-0.149013 -0.055562,-0.216976 0.2731319,-0.395652 0.09372,-0.05092 0.2648053,-0.155397 0.368162,-0.224774 0.061536,-0.04112 0.118408,-0.07494 0.126676,-0.07494 0.00846,0 0.029023,-0.01208 0.046196,-0.02751 0.031098,-0.02736 0.4537635,-0.283075 0.4679697,-0.283075 0.018242,0 0.1763846,-0.121879 0.1906486,-0.146953 0.019987,-0.03511 -0.3674573,-0.03686 -1.5083906,-0.0068 -1.0074403,0.0266 -0.8989671,0.05411 -1.0921621,-0.277908 -0.010781,-0.0187 -0.1038871,-0.17157 -0.206721,-0.339782 C 5.8545746,13.96733 5.760465,13.812237 5.7483323,13.79088 5.7361417,13.76952 5.6716214,13.666325 5.6048375,13.561668 5.5379954,13.456958 5.4833774,13.365921 5.4833774,13.359415 c 0,-0.0068 -0.012025,-0.02554 -0.026704,-0.04249 -0.014679,-0.01687 -0.047934,-0.07 -0.073974,-0.117988 -0.02604,-0.04796 -0.051915,-0.09171 -0.057471,-0.09707 -0.016255,-0.01581 -0.1182092,-0.17309 -0.1182092,-0.182522 0,-0.0053 -0.084316,-0.140523 -0.1873981,-0.30172 -0.1031076,-0.161203 -0.1874728,-0.301582 -0.1874728,-0.311994 0,-0.01079 -0.00879,-0.01892 -0.019737,-0.01892 -0.010781,0 -0.019738,-0.0093 -0.019738,-0.02075 0,-0.04142 -0.2551607,-0.397819 -0.3208998,-0.4483 l -0.067423,-0.05176 -0.061617,0.07122 m 17.1093045,0.04682 c -0.03434,0.03747 -0.113996,0.154819 -0.352231,0.519211 -0.02438,0.03747 -0.06974,0.106466 -0.100761,0.153512 -0.03102,0.04697 -0.06966,0.106063 -0.08594,0.131 -0.191097,0.293389 -0.267625,0.405495 -0.280562,0.410944 -0.0085,0.0038 -0.01543,0.01444 -0.01543,0.02425 0,0.01505 -0.393016,0.634395 -0.636194,1.00261 -0.04072,0.06164 -0.0797,0.124958 -0.08685,0.14101 -0.0075,0.01604 -0.04271,0.07053 -0.07912,0.121332 -0.03632,0.05062 -0.06601,0.09721 -0.06601,0.103235 0,0.0061 -0.02223,0.03952 -0.04942,0.07456 -0.02704,0.03504 -0.04918,0.06992 -0.04918,0.07763 0,0.0081 -0.01244,0.02645 -0.02787,0.0415 -0.01534,0.01505 -0.0316,0.03853 -0.03624,0.05199 -0.01036,0.03032 -0.222959,0.03124 -1.580624,0.0068 l -0.983639,-0.01748 0.02571,0.04051 c 0.0141,0.02227 0.172604,0.124821 0.35224,0.228011 0.819818,0.470994 1.238659,0.728692 1.250045,0.769111 0.0097,0.03428 -0.02306,0.08823 -0.241643,0.397704 -0.111558,0.157852 -0.06071,0.140721 -0.533907,0.180197 -0.135608,0.01079 -0.283838,0.02941 -0.32935,0.03998 -0.04553,0.01079 -0.149831,0.01946 -0.231849,0.01946 -0.0958,0 -0.149077,0.0081 -0.149077,0.02143 0,0.02295 0.180591,0.214026 0.452785,0.479059 0.141853,0.138106 0.163224,0.167139 0.143611,0.194827 -0.01278,0.01786 -0.03774,0.0608 -0.05556,0.0956 -0.01775,0.03458 -0.03964,0.06301 -0.04851,0.06301 -0.009,0 -0.02131,0.01604 -0.02754,0.03534 -0.0067,0.01946 -0.02803,0.05282 -0.04826,0.07433 -0.02024,0.02151 -0.06004,0.07327 -0.08846,0.115054 -0.02844,0.04195 -0.07389,0.106596 -0.101134,0.144042 -0.02721,0.03747 -0.07157,0.09842 -0.09865,0.135857 -0.02712,0.03747 -0.06917,0.09507 -0.09362,0.128317 -0.02447,0.03321 -0.06195,0.08568 -0.08335,0.116506 -0.134189,0.193551 -0.150145,0.205582 -0.256752,0.193916 -0.241328,-0.0266 -0.731688,-0.0456 -0.749253,-0.02903 -0.01203,0.01079 -0.0102,0.04955 0.005,0.105121 0.01319,0.04811 0.0238,0.126166 0.0238,0.173326 0,0.0472 0.0098,0.110365 0.02198,0.14044 0.02106,0.05244 0.04802,0.208318 0.06817,0.394291 0.0058,0.04803 0.02397,0.159114 0.04155,0.24686 0.03774,0.187638 0.0457,0.171784 -0.171168,0.341568 -0.303236,0.237534 -0.564284,0.460772 -0.627586,0.5367 -0.03591,0.04302 -0.103182,0.09534 -0.14949,0.115981 -0.04636,0.02075 -0.132432,0.0771 -0.191288,0.125231 -0.05879,0.04788 -0.195774,0.158316 -0.304305,0.245074 -0.5044,0.403131 -0.501946,0.400471 -0.439524,0.475084 0.0089,0.01079 0.08044,0.110083 0.158829,0.220904 0.169949,0.240043 0.211465,0.297722 0.288258,0.400197 0.03209,0.04264 0.09858,0.13518 0.147807,0.205552 0.04934,0.0703 0.103324,0.139163 0.120075,0.152821 0.01667,0.01368 0.03035,0.0358 0.03035,0.04925 0,0.01338 0.01351,0.03534 0.02994,0.04879 0.0165,0.01338 0.103099,0.124829 0.192416,0.247385 0.08931,0.122685 0.186112,0.254619 0.215138,0.293298 0.02894,0.03876 0.08958,0.127101 0.134696,0.19656 0.04512,0.06939 0.108265,0.161082 0.140368,0.203804 0.03209,0.04264 0.08011,0.108206 0.106856,0.14557 0.02679,0.03747 0.07082,0.09855 0.09804,0.135864 0.02721,0.03747 0.07174,0.09855 0.09868,0.135841 0.02712,0.03747 0.07149,0.09857 0.09866,0.135864 0.02729,0.03747 0.07174,0.100698 0.09894,0.140736 0.06659,0.09788 0.177123,0.07939 0.507493,-0.08486 0.01882,-0.0093 0.05059,-0.01703 0.07057,-0.01703 0.01991,0 0.05714,-0.02181 0.0826,-0.04849 0.02571,-0.02698 0.06892,-0.04879 0.09719,-0.04895 0.02795,-1.9e-4 0.07298,-0.01763 0.100114,-0.03838 0.02712,-0.0209 0.06875,-0.03823 0.09257,-0.03838 0.0238,-1.98e-4 0.04835,-0.0081 0.05465,-0.01862 0.01485,-0.02371 0.127622,-0.07884 0.161251,-0.07884 0.01443,0 0.07298,-0.02865 0.130143,-0.06377 0.05722,-0.03504 0.130623,-0.07617 0.163182,-0.0913 0.03251,-0.01528 0.07257,-0.03823 0.08878,-0.05115 0.01626,-0.01345 0.09175,-0.05594 0.167694,-0.09532 0.07597,-0.03945 0.161698,-0.08823 0.190508,-0.108328 0.02877,-0.02014 0.06054,-0.03656 0.07057,-0.03656 0.01011,0 0.03906,-0.02181 0.06444,-0.04849 0.02546,-0.02668 0.05672,-0.04849 0.06949,-0.04849 0.01261,0 0.03923,-0.01741 0.05879,-0.03884 0.01966,-0.02136 0.04553,-0.03876 0.05747,-0.03876 0.01203,0 0.04578,-0.02181 0.07505,-0.04849 0.02919,-0.02668 0.06519,-0.04849 0.07978,-0.04849 0.0146,0 0.05664,-0.03063 0.0935,-0.06779 0.03682,-0.03747 0.07705,-0.06795 0.0892,-0.06795 0.0122,0 0.0432,-0.02181 0.06859,-0.04849 0.02554,-0.02668 0.05589,-0.0488 0.06759,-0.04925 0.01162,-2.96e-4 0.09671,-0.07007 0.188949,-0.155085 0.09223,-0.08489 0.177239,-0.154493 0.18894,-0.154599 0.01162,-9.9e-5 0.04205,-0.02212 0.06759,-0.04879 0.02546,-0.02668 0.05747,-0.04849 0.07115,-0.04849 0.01368,0 0.03035,-0.0171 0.03699,-0.03777 0.0075,-0.02075 0.02953,-0.04317 0.05067,-0.04971 0.02122,-0.0068 0.0384,-0.02478 0.0384,-0.04051 0,-0.01558 0.01559,-0.03359 0.03459,-0.04021 0.04528,-0.01551 0.202259,-0.163613 0.202259,-0.19067 0,-0.02789 0.162818,-0.184415 0.19176,-0.184415 0.01244,0 0.02811,-0.01703 0.03484,-0.03777 0.0075,-0.02075 0.03011,-0.04347 0.05191,-0.05024 0.02189,-0.0068 0.05573,-0.038 0.07505,-0.06932 0.01941,-0.03139 0.08086,-0.104026 0.136736,-0.161599 0.05589,-0.05738 0.101648,-0.111946 0.10178,-0.1208 3.4e-5,-0.0093 0.03981,-0.05982 0.08824,-0.113291 0.04843,-0.05335 0.08829,-0.103107 0.08857,-0.110479 2.23e-4,-0.0068 0.03607,-0.05381 0.07945,-0.103122 0.04345,-0.04933 0.07895,-0.09572 0.07903,-0.103091 5e-5,-0.0081 0.02446,-0.03967 0.05424,-0.07175 0.06319,-0.0681 0.163449,-0.256239 0.163025,-0.305976 -1.08e-4,-0.01892 0.02189,-0.06886 0.04901,-0.111155 0.02712,-0.04226 0.04942,-0.08406 0.04942,-0.09291 0,-0.0093 0.03102,-0.0456 0.069,-0.08179 0.03798,-0.03618 0.06908,-0.07547 0.06908,-0.08741 0,-0.01209 0.01708,-0.03952 0.03773,-0.06156 0.02073,-0.02181 0.05556,-0.07816 0.07729,-0.124965 0.02164,-0.04682 0.06269,-0.106459 0.09102,-0.132733 0.04951,-0.0456 0.109684,-0.143875 0.109684,-0.179004 0,-0.0093 0.02223,-0.05138 0.04942,-0.09372 0.02721,-0.04218 0.04943,-0.0901 0.04943,-0.106337 0,-0.01619 0.0088,-0.02957 0.01974,-0.02957 0.01078,0 0.01974,-0.01741 0.01974,-0.03891 0,-0.02151 0.02339,-0.08475 0.05191,-0.140668 0.02852,-0.05609 0.05971,-0.116931 0.06908,-0.135506 0.0094,-0.01854 0.01709,-0.0507 0.01709,-0.0716 0,-0.02075 0.0089,-0.04332 0.01982,-0.05001 0.01078,-0.0068 0.01974,-0.02789 0.01974,-0.04735 0,-0.01946 0.01335,-0.04606 0.02961,-0.05951 0.01617,-0.01345 0.02961,-0.04864 0.02961,-0.07885 0,-0.03002 0.0088,-0.06004 0.01974,-0.06658 0.01078,-0.0068 0.01974,-0.04591 0.01974,-0.08728 0,-0.04142 0.0088,-0.0807 0.01974,-0.0873 0.01078,-0.0068 0.01974,-0.0323 0.01974,-0.05693 0,-0.02478 0.01335,-0.05586 0.02961,-0.06916 0.01617,-0.01338 0.02961,-0.04879 0.02961,-0.07885 0,-0.03017 0.0088,-0.06004 0.01974,-0.06673 0.01078,-0.0068 0.01983,-0.03709 0.01983,-0.06795 0,-0.03063 0.0088,-0.06126 0.01974,-0.0678 0.01078,-0.0068 0.01974,-0.04537 0.01974,-0.08609 0,-0.04226 0.01277,-0.08446 0.02961,-0.09827 0.01774,-0.01444 0.02961,-0.057 0.02961,-0.105919 0,-0.09171 0.034,-0.29117 0.05987,-0.350225 0.0093,-0.02136 0.02131,-0.07815 0.02654,-0.126158 0.0058,-0.04803 0.02248,-0.157176 0.03815,-0.242581 0.01576,-0.08539 0.0335,-0.2601 0.03931,-0.388211 0.0067,-0.128044 0.02106,-0.279048 0.03367,-0.335442 0.04968,-0.222569 -0.02936,-1.661675 -0.09813,-1.788168 -0.01136,-0.02075 -0.02065,-0.09091 -0.02065,-0.155656 0,-0.06475 -0.0083,-0.117729 -0.01741,-0.117729 -0.02056,0 -0.04072,-0.0846 -0.05523,-0.232564 -0.0058,-0.05852 -0.02289,-0.123757 -0.03798,-0.145022 -0.01518,-0.02136 -0.02754,-0.06681 -0.02754,-0.101093 0,-0.03428 -0.0088,-0.06787 -0.01974,-0.07441 -0.01078,-0.0068 -0.01974,-0.03762 -0.01974,-0.06901 0,-0.03139 -0.009,-0.05715 -0.01983,-0.05715 -0.01078,0 -0.01999,-0.03268 -0.02032,-0.07281 -4.32e-4,-0.04005 -0.01368,-0.0897 -0.02961,-0.110471 -0.01592,-0.02075 -0.02902,-0.05738 -0.02902,-0.08126 0,-0.02402 -0.0088,-0.0491 -0.01974,-0.05579 -0.01078,-0.0068 -0.01974,-0.03709 -0.01974,-0.06795 0,-0.03078 -0.0088,-0.06149 -0.01974,-0.06795 -0.01078,-0.0068 -0.01974,-0.02949 -0.01974,-0.051 0,-0.02143 -0.02223,-0.06757 -0.04934,-0.10256 -0.03185,-0.04097 -0.04942,-0.08876 -0.04942,-0.13461 0,-0.03891 -0.0088,-0.07091 -0.01974,-0.07091 -0.01078,0 -0.01974,-0.01338 -0.01974,-0.02957 0,-0.01619 -0.02214,-0.06407 -0.04934,-0.106458 -0.02712,-0.04226 -0.04918,-0.09225 -0.04901,-0.11114 4.4e-4,-0.04195 -0.09564,-0.232829 -0.143395,-0.285188 -0.0189,-0.02075 -0.0345,-0.05693 -0.0345,-0.08044 0,-0.02333 -0.01335,-0.05343 -0.02961,-0.06658 -0.01626,-0.01338 -0.02969,-0.03618 -0.02969,-0.05092 0,-0.03907 -0.02704,-0.03261 -0.07265,0.01687 m -8.444039,1.13576 c -0.01228,0.0081 -0.06129,0.085 -0.108515,0.171532 -0.04727,0.08648 -0.119246,0.214597 -0.159948,0.284611 -0.04072,0.06992 -0.07405,0.140615 -0.07405,0.156955 0,0.01634 -0.0093,0.03519 -0.02049,0.04211 -0.03069,0.01862 -0.117563,0.159684 -0.117563,0.190838 0,0.0149 -0.01335,0.038 -0.02961,0.05138 -0.01625,0.01338 -0.02961,0.03945 -0.02961,0.05822 0,0.01877 -0.01319,0.04477 -0.02927,0.05784 -0.02994,0.0244 -0.14828,0.228018 -0.14828,0.255091 0,0.0081 -0.02546,0.05259 -0.05656,0.09841 -0.0311,0.04591 -0.07248,0.118391 -0.0922,0.16109 -0.09421,0.205142 -0.189313,0.318296 -0.278621,0.331429 -0.04636,0.0068 -0.09463,0.02455 -0.107163,0.03945 -0.01518,0.01794 -0.06552,0.02713 -0.149922,0.02713 -0.06991,0 -0.14653,0.01079 -0.170215,0.02273 -0.02372,0.01208 -0.10528,0.02957 -0.181236,0.03777 -0.204374,0.02212 -0.426064,0.0684 -0.493287,0.102826 -0.03334,0.01718 -0.108142,0.03055 -0.171484,0.03055 -0.0617,9.9e-5 -0.117745,0.0093 -0.124446,0.01961 -0.0075,0.01079 -0.07174,0.01969 -0.144216,0.02014 -0.07704,3.34e-4 -0.152551,0.01208 -0.181353,0.02842 -0.02712,0.01528 -0.08136,0.02805 -0.12039,0.02843 -0.1776711,0.0015 -0.2488996,0.08165 -0.1509592,0.169321 0.024384,0.02181 0.069246,0.07144 0.099542,0.110205 0.030269,0.03876 0.068,0.07053 0.08381,0.07053 0.01584,0 0.02877,0.0093 0.02877,0.02181 0,0.01208 0.04221,0.06544 0.09368,0.11852 0.128683,0.132748 0.270536,0.282354 0.399551,0.421418 0.05971,0.06438 0.196297,0.2066 0.303484,0.316129 0.400845,0.409515 0.475143,0.524243 0.392054,0.605027 -0.01882,0.01816 -0.06386,0.441209 -0.07672,0.719785 -0.0075,0.156598 -0.01808,0.222417 -0.0408,0.24724 -0.02223,0.02417 -0.03533,0.09653 -0.0457,0.2524 -0.0083,0.120268 -0.02446,0.243204 -0.03665,0.273241 -0.01219,0.0301 -0.02206,0.145775 -0.02206,0.257181 v 0.202519 h 0.05954 c 0.03267,0 0.07489,-0.0081 0.09371,-0.01816 0.07928,-0.04211 0.170389,-0.07885 0.194962,-0.07885 0.0146,0 0.03749,-0.01741 0.051,-0.03884 0.01351,-0.02136 0.03673,-0.03869 0.05141,-0.03869 0.02546,0 0.130939,-0.04074 0.205195,-0.07923 0.01882,-0.0093 0.0442,-0.01786 0.05631,-0.01786 0.01219,0 0.04851,-0.02181 0.08069,-0.04849 0.03226,-0.02668 0.0758,-0.04849 0.09683,-0.04849 0.02106,0 0.05366,-0.0081 0.07257,-0.01794 0.01882,-0.0093 0.07721,-0.03732 0.129546,-0.06073 0.05242,-0.02349 0.09999,-0.05472 0.105695,-0.06932 0.0058,-0.01459 0.03177,-0.02668 0.05789,-0.02668 0.02604,0 0.06278,-0.0081 0.08169,-0.01862 0.01882,-0.01079 0.07497,-0.03603 0.124761,-0.05723 0.04985,-0.02121 0.101921,-0.05214 0.115879,-0.06871 0.01393,-0.01649 0.04146,-0.03002 0.06079,-0.03002 0.01949,0 0.06054,-0.01208 0.09133,-0.02805 0.248252,-0.124281 0.273305,-0.125086 0.50464,-0.01611 0.05158,0.02432 0.107238,0.04408 0.123956,0.04408 0.01667,0 0.03533,0.01345 0.04138,0.0285 0.0067,0.0155 0.03019,0.03359 0.05366,0.04005 0.03931,0.01079 0.131901,0.0494 0.214981,0.08956 0.01882,0.0093 0.04487,0.01649 0.05789,0.01649 0.01294,0 0.04205,0.01596 0.06435,0.03527 0.02239,0.0193 0.08069,0.05085 0.129488,0.06992 0.04893,0.01908 0.104211,0.04241 0.123052,0.05214 0.01882,0.0093 0.04702,0.01741 0.06261,0.01741 0.01559,0 0.05473,0.02181 0.08703,0.04849 0.03218,0.02668 0.07232,0.04849 0.0891,0.04849 0.01684,0 0.03607,0.0093 0.04271,0.01946 0.0075,0.01079 0.03276,0.01946 0.05789,0.01946 0.02529,0 0.05689,0.01338 0.07032,0.02903 0.01351,0.01596 0.04545,0.02903 0.07082,0.02903 0.02604,0 0.05548,0.01687 0.06726,0.03869 0.01161,0.02136 0.03276,0.03884 0.04702,0.03884 0.02413,0 0.115639,0.03709 0.194464,0.07897 0.04453,0.02364 0.14755,0.02326 0.162444,-3.34e-4 0.01966,-0.03124 -0.02513,-0.481727 -0.0525,-0.529001 -0.01426,-0.0244 -0.03226,-0.140538 -0.03997,-0.257971 -0.034,-0.51307 -0.04802,-0.662334 -0.06436,-0.688373 -0.0095,-0.0152 -0.02355,-0.107796 -0.0311,-0.205711 -0.0083,-0.09787 -0.02521,-0.222357 -0.03947,-0.276593 -0.03509,-0.134245 0.0025,-0.189994 0.39557,-0.58519 0.04884,-0.04902 0.103423,-0.10645 0.12136,-0.127496 0.01791,-0.02113 0.05333,-0.05647 0.07887,-0.07871 0.07945,-0.06939 0.419777,-0.435957 0.450644,-0.48539 0.01609,-0.02576 0.04495,-0.05191 0.06411,-0.05776 0.01915,-0.0061 0.03484,-0.01809 0.03484,-0.02698 0,-0.0093 0.06269,-0.07951 0.139116,-0.157077 0.171749,-0.174033 0.184959,-0.249641 0.04835,-0.276493 -0.04345,-0.0081 -0.114427,-0.02493 -0.157874,-0.03641 -0.04337,-0.01208 -0.136629,-0.02478 -0.207161,-0.02972 -0.07049,-0.0061 -0.136669,-0.01687 -0.146995,-0.02668 -0.01036,-0.0093 -0.07853,-0.01786 -0.151521,-0.01786 -0.08969,0 -0.142002,-0.0093 -0.161383,-0.02812 -0.02919,-0.02865 -0.2557,-0.07829 -0.487176,-0.106587 -0.07057,-0.0081 -0.153281,-0.02546 -0.183832,-0.03755 -0.0306,-0.01208 -0.106027,-0.02212 -0.16771,-0.02242 -0.06577,-3.27e-4 -0.127573,-0.01209 -0.149342,-0.02827 -0.0204,-0.01528 -0.07663,-0.03352 -0.124877,-0.04059 -0.06593,-0.0093 -0.093,-0.0244 -0.109003,-0.05898 -0.01178,-0.02523 -0.02886,-0.04606 -0.03798,-0.04606 -0.009,0 -0.01683,-0.01079 -0.01725,-0.02425 -7.5e-4,-0.03192 -0.05573,-0.140629 -0.120325,-0.238484 -0.02836,-0.04302 -0.07174,-0.121613 -0.09612,-0.174649 -0.02438,-0.0529 -0.051,-0.100697 -0.05913,-0.106063 -0.0083,-0.0061 -0.05424,-0.08395 -0.102501,-0.174671 -0.04827,-0.09076 -0.120449,-0.220411 -0.160322,-0.288168 -0.03989,-0.06772 -0.07257,-0.134344 -0.07257,-0.148063 0,-0.01368 -0.01368,-0.03595 -0.03027,-0.04955 -0.01667,-0.01368 -0.06096,-0.08755 -0.0985,-0.164244 -0.03757,-0.07671 -0.09497,-0.175819 -0.127589,-0.220099 -0.03259,-0.04423 -0.05946,-0.09197 -0.05946,-0.105919 0,-0.05442 -0.06386,-0.08714 -0.111359,-0.05715"
       stroke="none"
       fill="#04b3ea"
       fill-rule="evenodd"
       style="display:inline;mix-blend-mode:normal;fill:#4d4d4d;fill-opacity:1;stroke:#001900;stroke-width:0.0527885;stroke-opacity:1;enable-background:new" />
  </g>
</svg>
