<?xml version="1.0" encoding="UTF-8" standalone="no"?>
<svg
   sodipodi:docname="mate-panel-notification-area.svg"
   version="1.0"
   inkscape:version="1.2.2 (b0a8486541, 2022-12-01)"
   sodipodi:version="0.32"
   id="svg2"
   height="48"
   width="48"
   xmlns:inkscape="http://www.inkscape.org/namespaces/inkscape"
   xmlns:sodipodi="http://sodipodi.sourceforge.net/DTD/sodipodi-0.dtd"
   xmlns="http://www.w3.org/2000/svg"
   xmlns:svg="http://www.w3.org/2000/svg"
   xmlns:rdf="http://www.w3.org/1999/02/22-rdf-syntax-ns#"
   xmlns:cc="http://creativecommons.org/ns#"
   xmlns:dc="http://purl.org/dc/elements/1.1/">
  <defs
     id="defs4">
    <linearGradient
       id="linearGradient2783">
      <stop
         id="stop2785"
         offset="0"
         style="stop-color:#729fcf;stop-opacity:1" />
      <stop
         id="stop2787"
         offset="1"
         style="stop-color:#3465a4;stop-opacity:1;" />
    </linearGradient>
    <linearGradient
       id="b"
       gradientUnits="userSpaceOnUse"
       x1="11"
       x2="11"
       y1="20"
       y2="14"
       gradientTransform="matrix(2.2979913,0,0,2.1928618,-0.77887482,-0.95114036)">
      <stop
         offset="0"
         stop-color="#82868d"
         id="stop4165" />
      <stop
         offset="1"
         stop-color="#d9dada"
         id="stop4167" />
    </linearGradient>
    <linearGradient
       id="a"
       gradientTransform="matrix(2.2979913,0,0,2.140397,86.54479,0.36154837)"
       gradientUnits="userSpaceOnUse"
       x1="11"
       x2="11"
       y1="17"
       y2="2">
      <stop
         offset="0"
         stop-color="#f79f06"
         id="stop4154" />
      <stop
         offset=".06666667"
         stop-color="#eeab32"
         id="stop4156" />
      <stop
         offset=".2"
         stop-color="#e18f00"
         id="stop4158" />
      <stop
         offset=".80145305"
         stop-color="#f8c468"
         id="stop4160" />
      <stop
         offset="1"
         stop-color="#ffc35a"
         id="stop4162" />
    </linearGradient>
  </defs>
  <sodipodi:namedview
     inkscape:window-maximized="0"
     inkscape:document-rotation="0"
     showborder="false"
     inkscape:guide-bbox="true"
     showguides="true"
     inkscape:grid-points="true"
     inkscape:window-y="0"
     inkscape:window-x="139"
     inkscape:window-height="715"
     inkscape:window-width="1068"
     showgrid="false"
     inkscape:showpageshadow="false"
     height="48px"
     width="48px"
     inkscape:current-layer="layer2"
     inkscape:document-units="px"
     inkscape:cy="24.298924"
     inkscape:cx="37.296023"
     inkscape:zoom="2.6544385"
     inkscape:pageshadow="2"
     inkscape:pageopacity="0.0"
     borderopacity="1.0"
     bordercolor="#666666"
     pagecolor="#ffffff"
     id="base"
     inkscape:pagecheckerboard="0"
     inkscape:deskcolor="#d1d1d1">
    <inkscape:grid
       empspacing="2"
       empopacity="0.38"
       opacity="0.15"
       empcolor="#3f3fff"
       color="#3f3fff"
       spacingy="0.5"
       spacingx="0.5"
       originy="0"
       originx="0"
       type="xygrid"
       id="GridFromPre046Settings" />
  </sodipodi:namedview>
  <metadata
     id="metadata7">
    <rdf:RDF>
      <cc:Work
         rdf:about="">
        <dc:format>image/svg+xml</dc:format>
        <dc:type
           rdf:resource="http://purl.org/dc/dcmitype/StillImage" />
        <cc:license
           rdf:resource="http://creativecommons.org/licenses/GPL/2.0/" />
        <dc:creator>
          <cc:Agent>
            <dc:title>Lapo Calamandrei</dc:title>
          </cc:Agent>
        </dc:creator>
        <dc:title />
        <dc:contributor>
          <cc:Agent>
            <dc:title>Jakub Steiner</dc:title>
          </cc:Agent>
        </dc:contributor>
      </cc:Work>
      <cc:License
         rdf:about="http://creativecommons.org/licenses/GPL/2.0/">
        <cc:permits
           rdf:resource="http://web.resource.org/cc/Reproduction" />
        <cc:permits
           rdf:resource="http://web.resource.org/cc/Distribution" />
        <cc:requires
           rdf:resource="http://web.resource.org/cc/Notice" />
        <cc:permits
           rdf:resource="http://web.resource.org/cc/DerivativeWorks" />
        <cc:requires
           rdf:resource="http://web.resource.org/cc/ShareAlike" />
        <cc:requires
           rdf:resource="http://web.resource.org/cc/SourceCode" />
      </cc:License>
    </rdf:RDF>
  </metadata>
  <g
     style="display:inline"
     inkscape:label="shadow"
     id="layer4"
     inkscape:groupmode="layer" />
  <g
     style="display:inline"
     inkscape:label="spring"
     id="layer3"
     inkscape:groupmode="layer" />
  <g
     style="display:inline"
     inkscape:label="platform"
     id="layer2"
     inkscape:groupmode="layer">
    <ellipse
       cx="24.499029"
       cy="36.327511"
       fill="url(#b)"
       stroke-width="6.73443"
       id="circle4170"
       style="fill:url(#b)"
       rx="6.8939738"
       ry="6.5785856" />
    <path
       d="m 24.499029,3.4345834 a 4.5959825,4.3857237 0 0 0 -4.595983,4.3857237 4.5959825,4.3857237 0 0 0 0.103226,0.8908501 11.489956,10.964309 0 0 0 -6.997204,10.0734578 v 2.192862 A 9.191965,13.157171 0 0 1 3.817103,34.134648 v 2.192862 h 13.787948 13.787942 2.297992 11.489956 V 34.134648 A 9.191965,13.157171 0 0 1 35.988976,20.977477 v -2.192862 a 11.489956,10.964309 0 0 0 -6.9972,-10.0905906 4.5959825,4.3857237 0 0 0 0.10318,-0.8737173 4.5959825,4.3857237 0 0 0 -4.595978,-4.3857237 z"
       fill="url(#a)"
       id="path4172"
       style="fill:#00ffff;stroke-width:2.24481" />
    <path
       d="M 3.8171076,34.134648 H 45.180946 v 2.19286 H 3.8171076 Z"
       opacity="0.15"
       stroke-width="1.79985"
       id="path4174" />
    <path
       d="m 28.471148,5.6188799 a 4.5959825,4.3857237 0 0 1 -3.972119,2.2014272 11.489956,10.964309 0 0 1 4.492752,0.8737173 4.5959825,4.3857237 0 0 0 0.10318,-0.8737173 4.5959825,4.3857237 0 0 0 -0.623859,-2.2014272 z m -3.972119,2.2014272 a 4.5959825,4.3857237 0 0 1 -3.967624,-2.1928619 4.5959825,4.3857237 0 0 0 -0.628359,2.1928619 4.5959825,4.3857237 0 0 0 0.107707,0.8908501 11.489956,10.964309 0 0 1 4.488264,-0.8908501 z"
       opacity="0.15"
       id="path4176"
       style="stroke-width:2.24481" />
    <path
       d="M 27.528604,4.5181663 A 4.5959825,4.3857237 0 0 1 24.499029,5.6274452 4.5959825,4.3857237 0 0 1 21.469451,4.522449 4.5959825,4.3857237 0 0 0 20.526914,5.6402932 4.5959825,4.3857237 0 0 0 24.499029,7.8203071 4.5959825,4.3857237 0 0 0 28.48011,5.6317279 4.5959825,4.3857237 0 0 0 27.528604,4.5181663 Z"
       opacity="0.08"
       id="path4178"
       style="stroke-width:2.24481" />
  </g>
</svg>
