<?xml version="1.0" encoding="UTF-8" standalone="no"?>
<svg
   sodipodi:docname="mate-panel-drawer.svg"
   version="1.0"
   inkscape:version="1.2.2 (b0a8486541, 2022-12-01)"
   sodipodi:version="0.32"
   id="svg2"
   height="48"
   width="48"
   xmlns:inkscape="http://www.inkscape.org/namespaces/inkscape"
   xmlns:sodipodi="http://sodipodi.sourceforge.net/DTD/sodipodi-0.dtd"
   xmlns:xlink="http://www.w3.org/1999/xlink"
   xmlns="http://www.w3.org/2000/svg"
   xmlns:svg="http://www.w3.org/2000/svg"
   xmlns:rdf="http://www.w3.org/1999/02/22-rdf-syntax-ns#"
   xmlns:cc="http://creativecommons.org/ns#"
   xmlns:dc="http://purl.org/dc/elements/1.1/">
  <defs
     id="defs4">
    <linearGradient
       id="linearGradient3119">
      <stop
         id="stop3121"
         offset="0"
         style="stop-color:black;stop-opacity:0;" />
      <stop
         style="stop-color:black;stop-opacity:1;"
         offset="0.5"
         id="stop3127" />
      <stop
         id="stop3123"
         offset="1"
         style="stop-color:black;stop-opacity:0;" />
    </linearGradient>
    <linearGradient
       id="linearGradient3105"
       inkscape:collect="always">
      <stop
         id="stop3107"
         offset="0"
         style="stop-color:black;stop-opacity:1;" />
      <stop
         id="stop3109"
         offset="1"
         style="stop-color:black;stop-opacity:0;" />
    </linearGradient>
    <linearGradient
       id="linearGradient2820">
      <stop
         id="stop2822"
         offset="0"
         style="stop-color:black;stop-opacity:1" />
      <stop
         id="stop2824"
         offset="1"
         style="stop-color:black;stop-opacity:0;" />
    </linearGradient>
    <linearGradient
       id="linearGradient1954">
      <stop
         id="stop1956"
         offset="0"
         style="stop-color:#eeeeec;stop-opacity:1" />
      <stop
         id="stop1958"
         offset="1"
         style="stop-color:white;stop-opacity:1;" />
    </linearGradient>
    <linearGradient
       id="linearGradient1946">
      <stop
         id="stop1948"
         offset="0"
         style="stop-color:#eeeeec;stop-opacity:1" />
      <stop
         id="stop1950"
         offset="1"
         style="stop-color:white;stop-opacity:1;" />
    </linearGradient>
    <linearGradient
       id="linearGradient1938">
      <stop
         id="stop1940"
         offset="0"
         style="stop-color:#babdb6;stop-opacity:1" />
      <stop
         id="stop1942"
         offset="1"
         style="stop-color:#d3d7cf;stop-opacity:1;" />
    </linearGradient>
    <linearGradient
       id="linearGradient1914">
      <stop
         id="stop1916"
         offset="0"
         style="stop-color:#d3d7cf;stop-opacity:1;" />
      <stop
         id="stop1918"
         offset="1"
         style="stop-color:#e2e5e0;stop-opacity:1;" />
    </linearGradient>
    <linearGradient
       id="linearGradient3737"
       inkscape:collect="always">
      <stop
         id="stop3739"
         offset="0"
         style="stop-color:black;stop-opacity:1;" />
      <stop
         id="stop3741"
         offset="1"
         style="stop-color:black;stop-opacity:0;" />
    </linearGradient>
    <linearGradient
       id="linearGradient3704">
      <stop
         id="stop3714"
         offset="0"
         style="stop-color:#fce94f;stop-opacity:1" />
      <stop
         id="stop3708"
         offset="1"
         style="stop-color:#fef8c2;stop-opacity:1;" />
    </linearGradient>
    <linearGradient
       id="linearGradient3635">
      <stop
         style="stop-color:#d3d7cf;stop-opacity:1"
         offset="0"
         id="stop3637" />
      <stop
         style="stop-color:#888a85;stop-opacity:1"
         offset="1"
         id="stop3639" />
    </linearGradient>
    <linearGradient
       id="linearGradient3615">
      <stop
         id="stop3617"
         offset="0"
         style="stop-color:#eeeeec;stop-opacity:1" />
      <stop
         id="stop3619"
         offset="1"
         style="stop-color:#d3d7cf;stop-opacity:1" />
    </linearGradient>
    <linearGradient
       id="linearGradient3048"
       inkscape:collect="always">
      <stop
         id="stop3050"
         offset="0"
         style="stop-color:#888a85;stop-opacity:1" />
      <stop
         id="stop3052"
         offset="1"
         style="stop-color:#2e3436;stop-opacity:1" />
    </linearGradient>
    <linearGradient
       id="linearGradient3040"
       inkscape:collect="always">
      <stop
         id="stop3042"
         offset="0"
         style="stop-color:white;stop-opacity:1;" />
      <stop
         id="stop3044"
         offset="1"
         style="stop-color:white;stop-opacity:0;" />
    </linearGradient>
    <linearGradient
       id="linearGradient3030"
       inkscape:collect="always">
      <stop
         id="stop3032"
         offset="0"
         style="stop-color:#c4a000;stop-opacity:1" />
      <stop
         id="stop3034"
         offset="1"
         style="stop-color:#edd400;stop-opacity:1" />
    </linearGradient>
    <linearGradient
       inkscape:collect="always"
       xlink:href="#linearGradient1954"
       id="linearGradient3017"
       x1="33.059471"
       y1="13.5"
       x2="35.50145"
       y2="13.5"
       gradientUnits="userSpaceOnUse" />
    <linearGradient
       inkscape:collect="always"
       xlink:href="#linearGradient1946"
       id="linearGradient3015"
       x1="37.625"
       y1="17.25"
       x2="35"
       y2="21.62743"
       gradientUnits="userSpaceOnUse" />
    <linearGradient
       inkscape:collect="always"
       xlink:href="#linearGradient1938"
       id="linearGradient3013"
       x1="10.625"
       y1="13.740631"
       x2="10.625"
       y2="20.001247"
       gradientUnits="userSpaceOnUse" />
    <linearGradient
       inkscape:collect="always"
       xlink:href="#linearGradient1914"
       id="linearGradient3011"
       x1="22.9375"
       y1="13.93608"
       x2="22.9375"
       y2="23.944141"
       gradientUnits="userSpaceOnUse" />
    <radialGradient
       inkscape:collect="always"
       xlink:href="#linearGradient3737"
       id="radialGradient3009"
       cx="24.8125"
       cy="33.6875"
       fx="24.8125"
       fy="33.6875"
       r="26.9375"
       gradientTransform="matrix(1,0,0,0.234339,0,25.79321)"
       gradientUnits="userSpaceOnUse" />
    <linearGradient
       inkscape:collect="always"
       xlink:href="#linearGradient3704"
       id="linearGradient3007"
       x1="42.875"
       y1="34.375"
       x2="2"
       y2="20"
       gradientUnits="userSpaceOnUse" />
    <radialGradient
       inkscape:collect="always"
       xlink:href="#linearGradient3635"
       id="radialGradient3004"
       cx="18.972952"
       cy="32.439533"
       fx="18.972952"
       fy="32.439533"
       r="8"
       gradientTransform="matrix(1.684665,0,-8.88777e-6,1.004299,-12.93154,-1.141463)"
       gradientUnits="userSpaceOnUse" />
    <radialGradient
       inkscape:collect="always"
       xlink:href="#linearGradient3615"
       id="radialGradient3002"
       cx="19.100201"
       cy="34.240425"
       fx="19.100201"
       fy="34.240425"
       r="7"
       gradientTransform="matrix(1.545571,0,-1.698759e-7,0.202484,-10.53632,24.58251)"
       gradientUnits="userSpaceOnUse" />
    <linearGradient
       inkscape:collect="always"
       xlink:href="#linearGradient3040"
       id="linearGradient3000"
       gradientUnits="userSpaceOnUse"
       x1="3"
       y1="24.871992"
       x2="7.9375"
       y2="49.815731" />
    <linearGradient
       inkscape:collect="always"
       xlink:href="#linearGradient3048"
       id="linearGradient2998"
       x1="11.375"
       y1="17.493593"
       x2="11.375"
       y2="24.053179"
       gradientUnits="userSpaceOnUse" />
    <linearGradient
       inkscape:collect="always"
       xlink:href="#linearGradient3030"
       id="linearGradient2996"
       x1="2.3864853"
       y1="34.399788"
       x2="0.51148534"
       y2="15.856615"
       gradientUnits="userSpaceOnUse" />
    <linearGradient
       id="linearGradient2972">
      <stop
         style="stop-color:#eeeeec;stop-opacity:1"
         offset="0"
         id="stop2974" />
      <stop
         style="stop-color:#d3d7cf;stop-opacity:1"
         offset="1"
         id="stop2976" />
    </linearGradient>
    <linearGradient
       id="linearGradient2966">
      <stop
         id="stop2968"
         offset="0"
         style="stop-color:#d3d7cf;stop-opacity:1" />
      <stop
         id="stop2970"
         offset="1"
         style="stop-color:#888a85;stop-opacity:1" />
    </linearGradient>
    <linearGradient
       id="linearGradient2957">
      <stop
         style="stop-color:#fce94f;stop-opacity:1"
         offset="0"
         id="stop2959" />
      <stop
         style="stop-color:#fef8c2;stop-opacity:1;"
         offset="1"
         id="stop2961" />
    </linearGradient>
    <linearGradient
       id="linearGradient2945">
      <stop
         style="stop-color:#d3d7cf;stop-opacity:1;"
         offset="0"
         id="stop2947" />
      <stop
         style="stop-color:#e2e5e0;stop-opacity:1;"
         offset="1"
         id="stop2949" />
    </linearGradient>
    <linearGradient
       id="linearGradient2939">
      <stop
         style="stop-color:#babdb6;stop-opacity:1"
         offset="0"
         id="stop2941" />
      <stop
         style="stop-color:#d3d7cf;stop-opacity:1;"
         offset="1"
         id="stop2943" />
    </linearGradient>
    <linearGradient
       id="linearGradient2933">
      <stop
         style="stop-color:#eeeeec;stop-opacity:1"
         offset="0"
         id="stop2935" />
      <stop
         style="stop-color:white;stop-opacity:1;"
         offset="1"
         id="stop2937" />
    </linearGradient>
    <linearGradient
       id="linearGradient2927">
      <stop
         style="stop-color:#eeeeec;stop-opacity:1"
         offset="0"
         id="stop2929" />
      <stop
         style="stop-color:white;stop-opacity:1;"
         offset="1"
         id="stop2931" />
    </linearGradient>
    <radialGradient
       gradientUnits="userSpaceOnUse"
       gradientTransform="matrix(0,-0.824745,1.649484,0,-61.08302,38.17527)"
       r="3.03125"
       fy="40.062828"
       fx="2.03125"
       cy="40.062828"
       cx="2.03125"
       id="radialGradient3111"
       xlink:href="#linearGradient3105"
       inkscape:collect="always" />
    <radialGradient
       r="3.03125"
       fy="40.062828"
       fx="2.03125"
       cy="40.062828"
       cx="2.03125"
       gradientTransform="matrix(0,-0.824745,1.649485,0,-109.0831,-34.82472)"
       gradientUnits="userSpaceOnUse"
       id="radialGradient3115"
       xlink:href="#linearGradient3105"
       inkscape:collect="always" />
    <linearGradient
       gradientUnits="userSpaceOnUse"
       y2="39"
       x2="23.997437"
       y1="34"
       x1="23.997437"
       id="linearGradient3125"
       xlink:href="#linearGradient3119"
       inkscape:collect="always" />
    <linearGradient
       id="b"
       y1="17"
       x1="40"
       y2="31"
       gradientUnits="userSpaceOnUse"
       x2="54"
       gradientTransform="matrix(0.87722433,0,0,0.71536319,-4.1162515,0.73874449)">
      <stop
         stop-color="#060606"
         id="stop1182" />
      <stop
         offset="1"
         stop-opacity="0"
         id="stop1184" />
    </linearGradient>
    <linearGradient
       id="a"
       y1="392.35999"
       y2="336.35999"
       gradientUnits="userSpaceOnUse"
       x2="0"
       gradientTransform="matrix(0.87722433,0,0,0.71536319,-46.223025,-237.01936)">
      <stop
         stop-color="#ffffff"
         stop-opacity="0"
         id="stop1177" />
      <stop
         offset="1"
         stop-color="#ffffff"
         stop-opacity=".2"
         id="stop1179" />
    </linearGradient>
    <linearGradient
       id="linearGradient1230"
       y1="392.35999"
       y2="336.35999"
       gradientUnits="userSpaceOnUse"
       x2="0"
       gradientTransform="translate(-48,-332.36)">
      <stop
         stop-color="#ffffff"
         stop-opacity="0"
         id="stop1226" />
      <stop
         offset="1"
         stop-color="#ffffff"
         stop-opacity=".2"
         id="stop1228" />
    </linearGradient>
  </defs>
  <sodipodi:namedview
     inkscape:window-maximized="0"
     inkscape:document-rotation="0"
     inkscape:guide-bbox="true"
     showguides="true"
     borderlayer="true"
     showborder="false"
     gridtolerance="10000"
     inkscape:grid-bbox="true"
     inkscape:grid-points="false"
     inkscape:showpageshadow="false"
     inkscape:window-y="0"
     inkscape:window-x="145"
     inkscape:window-height="715"
     inkscape:window-width="1051"
     showgrid="false"
     inkscape:current-layer="layer1"
     inkscape:document-units="px"
     inkscape:cy="30.3125"
     inkscape:cx="29.6875"
     inkscape:zoom="8"
     inkscape:pageshadow="2"
     inkscape:pageopacity="0.0"
     borderopacity="1.0"
     bordercolor="#666666"
     pagecolor="#ffffff"
     id="base"
     inkscape:pagecheckerboard="0"
     inkscape:deskcolor="#d1d1d1">
    <inkscape:grid
       empspacing="2"
       empopacity="0.38"
       opacity="0.15"
       empcolor="#3f3fff"
       color="#3f3fff"
       spacingy="0.5"
       spacingx="0.5"
       originy="0"
       originx="0"
       type="xygrid"
       id="GridFromPre046Settings" />
  </sodipodi:namedview>
  <metadata
     id="metadata7">
    <rdf:RDF>
      <cc:Work
         rdf:about="">
        <dc:format>image/svg+xml</dc:format>
        <dc:type
           rdf:resource="http://purl.org/dc/dcmitype/StillImage" />
        <dc:creator>
          <cc:Agent>
            <dc:title>Lapo Calamandrei</dc:title>
          </cc:Agent>
        </dc:creator>
        <dc:title>Cassetto</dc:title>
        <dc:date>2006-05-11</dc:date>
        <dc:subject>
          <rdf:Bag>
            <rdf:li>drawer</rdf:li>
          </rdf:Bag>
        </dc:subject>
        <cc:license
           rdf:resource="http://creativecommons.org/licenses/GPL/2.0/" />
      </cc:Work>
      <cc:License
         rdf:about="http://creativecommons.org/licenses/GPL/2.0/">
        <cc:permits
           rdf:resource="http://web.resource.org/cc/Reproduction" />
        <cc:permits
           rdf:resource="http://web.resource.org/cc/Distribution" />
        <cc:requires
           rdf:resource="http://web.resource.org/cc/Notice" />
        <cc:permits
           rdf:resource="http://web.resource.org/cc/DerivativeWorks" />
        <cc:requires
           rdf:resource="http://web.resource.org/cc/ShareAlike" />
        <cc:requires
           rdf:resource="http://web.resource.org/cc/SourceCode" />
      </cc:License>
    </rdf:RDF>
  </metadata>
  <g
     id="layer1"
     inkscape:groupmode="layer"
     inkscape:label="Livello 1">
    <g
       color-rendering="auto"
       color-interpolation-filters="linearRGB"
       shape-rendering="auto"
       image-rendering="auto"
       text-rendering="auto"
       color-interpolation="sRGB"
       color="#000000"
       id="g1202"
       transform="matrix(0.87722431,0,0,0.71536321,-4.1162526,0.73874451)">
      <path
         id="use1190"
         d="M 10,61 V 3 H 40 L 54,17 V 61 H 40 Z"
         style="fill:#383838" />
      <g
         fill="#ffffff"
         id="g1196">
        <path
           opacity="0.1"
           d="m 10,4 v 1 h 2 v 2 h -2 v 1 h 2 v 2 h -2 v 1 h 2 v 2 h -2 v 1 h 2 v 2 h -2 v 1 h 2 v 2 h -2 v 1 h 2 v 2 h -2 v 1 h 2 v 2 h -2 v 1 h 2 v 2 h -2 v 1 h 2 v 2 h -2 v 1 h 2 v 2 h -2 v 1 h 2 v 2 h -2 v 1 h 2 v 2 h -2 v 1 h 2 v 2 h -2 v 1 h 2 v 2 h -2 v 1 h 2 v 2 h -2 v 1 h 2 v 2 h -2 v 1 h 2 v 2 h -2 v 1 h 2 v 2 h -2 v 1 h 2 v 2 h 1 v -2 h 2 v 2 h 1 v -2 h 2 v 2 h 1 v -2 h 2 v 2 h 1 v -2 h 2 v 2 h 1 v -2 h 2 v 2 h 1 v -2 h 2 v 2 h 1 v -2 h 2 v 2 h 1 v -2 h 2 v 2 h 1 v -2 h 2 v 2 h 1 v -2 h 2 v 2 h 1 v -2 h 2 v 2 h 1 v -2 h 2 v 2 h 1 v -2 h 2 v 2 h 1 v -2 h 2 v -1 h -2 v -2 h 2 v -1 h -2 v -2 h 2 v -1 h -2 v -2 h 2 v -1 h -2 v -2 h 2 v -1 h -2 v -2 h 2 v -1 h -2 v -2 h 2 v -1 h -2 v -2 h 2 v -1 h -2 v -2 h 2 v -1 h -2 v -2 h 2 v -1 h -2 v -2 h 2 v -1 h -2 v -2 h 2 v -1 h -2 v -2 h 2 v -1 h -2 v -2 h 2 v -1 h -2 v -2 h 2 l -1,-1 h -1 v -1 l -1,-1 v 2 h -2 v -2 h 2 l -1,-1 h -1 v -1 l -1,-1 v 2 h -2 v -2 h 2 L 47,10 H 46 V 9 L 45,8 v 2 H 43 V 8 h 2 L 44,7 H 43 V 6 L 42,5 V 7 H 40 V 5 h 2 L 41,4 H 12 Z m 3,1 h 2 v 2 h -2 z m 3,0 h 2 v 2 h -2 z m 3,0 h 2 v 2 h -2 z m 3,0 h 2 v 2 h -2 z m 3,0 h 2 v 2 h -2 z m 3,0 h 2 v 2 h -2 z m 3,0 h 2 v 2 h -2 z m 3,0 h 2 v 2 h -2 z m 3,0 h 2 V 7 H 37 Z M 13,8 h 2 v 2 h -2 z m 3,0 h 2 v 2 h -2 z m 3,0 h 2 v 2 h -2 z m 3,0 h 2 v 2 h -2 z m 3,0 h 2 v 2 h -2 z m 3,0 h 2 v 2 h -2 z m 3,0 h 2 v 2 h -2 z m 3,0 h 2 v 2 h -2 z m 3,0 h 2 v 2 h -2 z m 3,0 h 2 v 2 h -2 z m -27,3 h 2 v 2 h -2 z m 3,0 h 2 v 2 h -2 z m 3,0 h 2 v 2 h -2 z m 3,0 h 2 v 2 h -2 z m 3,0 h 2 v 2 h -2 z m 3,0 h 2 v 2 h -2 z m 3,0 h 2 v 2 h -2 z m 3,0 h 2 v 2 h -2 z m 3,0 h 2 v 2 h -2 z m 3,0 h 2 v 2 h -2 z m 3,0 h 2 v 2 h -2 z m -30,3 h 2 v 2 h -2 z m 3,0 h 2 v 2 h -2 z m 3,0 h 2 v 2 h -2 z m 3,0 h 2 v 2 h -2 z m 3,0 h 2 v 2 h -2 z m 3,0 h 2 v 2 h -2 z m 3,0 h 2 v 2 h -2 z m 3,0 h 2 v 2 h -2 z m 3,0 h 2 v 2 h -2 z m 3,0 h 2 v 2 h -2 z m 3,0 h 2 v 2 h -2 z m 3,0 h 2 v 2 h -2 z m -33,3 h 2 v 2 h -2 z m 3,0 h 2 v 2 h -2 z m 3,0 h 2 v 2 h -2 z m 3,0 h 2 v 2 h -2 z m 3,0 h 2 v 2 h -2 z m 3,0 h 2 v 2 h -2 z m 3,0 h 2 v 2 h -2 z m 3,0 h 2 v 2 h -2 z m 3,0 h 2 v 2 h -2 z m 3,0 h 2 v 2 h -2 z m 3,0 h 2 v 2 h -2 z m 3,0 h 2 v 2 h -2 z m 3,0 h 2 v 2 h -2 z m -36,3 h 2 v 2 h -2 z m 3,0 h 2 v 2 h -2 z m 3,0 h 2 v 2 h -2 z m 3,0 h 2 v 2 h -2 z m 3,0 h 2 v 2 h -2 z m 3,0 h 2 v 2 h -2 z m 3,0 h 2 v 2 h -2 z m 3,0 h 2 v 2 h -2 z m 3,0 h 2 v 2 h -2 z m 3,0 h 2 v 2 h -2 z m 3,0 h 2 v 2 h -2 z m 3,0 h 2 v 2 h -2 z m 3,0 h 2 v 2 h -2 z m -36,3 h 2 v 2 h -2 z m 3,0 h 2 v 2 h -2 z m 3,0 h 2 v 2 h -2 z m 3,0 h 2 v 2 h -2 z m 3,0 h 2 v 2 h -2 z m 3,0 h 2 v 2 h -2 z m 3,0 h 2 v 2 h -2 z m 3,0 h 2 v 2 h -2 z m 3,0 h 2 v 2 h -2 z m 3,0 h 2 v 2 h -2 z m 3,0 h 2 v 2 h -2 z m 3,0 h 2 v 2 h -2 z m 3,0 h 2 v 2 h -2 z m -36,3 h 2 v 2 h -2 z m 3,0 h 2 v 2 h -2 z m 3,0 h 2 v 2 h -2 z m 3,0 h 2 v 2 h -2 z m 3,0 h 2 v 2 h -2 z m 3,0 h 2 v 2 h -2 z m 3,0 h 2 v 2 h -2 z m 3,0 h 2 v 2 h -2 z m 3,0 h 2 v 2 h -2 z m 3,0 h 2 v 2 h -2 z m 3,0 h 2 v 2 h -2 z m 3,0 h 2 v 2 h -2 z m 3,0 h 2 v 2 h -2 z m -36,3 h 2 v 2 h -2 z m 3,0 h 2 v 2 h -2 z m 3,0 h 2 v 2 h -2 z m 3,0 h 2 v 2 h -2 z m 3,0 h 2 v 2 h -2 z m 3,0 h 2 v 2 h -2 z m 3,0 h 2 v 2 h -2 z m 3,0 h 2 v 2 h -2 z m 3,0 h 2 v 2 h -2 z m 3,0 h 2 v 2 h -2 z m 3,0 h 2 v 2 h -2 z m 3,0 h 2 v 2 h -2 z m 3,0 h 2 v 2 h -2 z m -36,3 h 2 v 2 h -2 z m 3,0 h 2 v 2 h -2 z m 3,0 h 2 v 2 h -2 z m 3,0 h 2 v 2 h -2 z m 3,0 h 2 v 2 h -2 z m 3,0 h 2 v 2 h -2 z m 3,0 h 2 v 2 h -2 z m 3,0 h 2 v 2 h -2 z m 3,0 h 2 v 2 h -2 z m 3,0 h 2 v 2 h -2 z m 3,0 h 2 v 2 h -2 z m 3,0 h 2 v 2 h -2 z m 3,0 h 2 v 2 h -2 z m -36,3 h 2 v 2 h -2 z m 3,0 h 2 v 2 h -2 z m 3,0 h 2 v 2 h -2 z m 3,0 h 2 v 2 h -2 z m 3,0 h 2 v 2 h -2 z m 3,0 h 2 v 2 h -2 z m 3,0 h 2 v 2 h -2 z m 3,0 h 2 v 2 h -2 z m 3,0 h 2 v 2 h -2 z m 3,0 h 2 v 2 h -2 z m 3,0 h 2 v 2 h -2 z m 3,0 h 2 v 2 h -2 z m 3,0 h 2 v 2 h -2 z m -36,3 h 2 v 2 h -2 z m 3,0 h 2 v 2 h -2 z m 3,0 h 2 v 2 h -2 v -1 z m 3,0 h 2 v 2 h -2 v -1 z m 3,0 h 2 v 2 h -2 v -1 z m 3,0 h 2 v 2 h -2 v -1 z m 3,0 h 2 v 2 h -2 v -1 z m 3,0 h 2 v 2 h -2 v -1 z m 3,0 h 2 v 2 h -2 v -1 z m 3,0 h 2 v 2 h -2 v -1 z m 3,0 h 2 v 2 h -2 v -1 z m 3,0 h 2 v 2 h -2 v -1 z m 3,0 h 2 v 2 h -2 z m -36,3 h 2 v 2 h -2 z m 3,0 h 2 v 2 h -2 z m 3,0 h 2 v 2 h -2 z m 3,0 h 2 v 2 h -2 v -1 z m 3,0 h 2 v 2 h -2 v -1 z m 3,0 h 2 v 2 h -2 v -1 z m 3,0 h 2 v 2 h -2 v -1 z m 3,0 h 2 v 2 h -2 v -1 z m 3,0 h 2 v 2 h -2 v -1 z m 3,0 h 2 v 2 h -2 v -1 z m 3,0 h 2 v 2 h -2 v -1 z m 3,0 h 2 v 2 h -2 v -1 z m 3,0 h 2 v 2 h -2 v -1 z m -36,3 h 2 v 2 h -2 z m 3,0 h 2 v 2 h -2 z m 3,0 h 2 v 2 h -2 z m 3,0 h 2 v 2 h -2 z m 3,0 h 2 v 2 h -2 z m 3,0 h 2 v 2 h -2 z m 3,0 h 2 v 2 h -2 z m 3,0 h 2 v 2 h -2 z m 3,0 h 2 v 2 h -2 z m 3,0 h 2 v 2 h -2 z m 3,0 h 2 v 2 h -2 z m 3,0 h 2 v 2 h -2 z m 3,0 h 2 v 2 h -2 z m -36,3 h 2 v 2 h -2 z m 3,0 h 2 v 2 h -2 z m 3,0 h 2 v 2 h -2 z m 3,0 h 2 v 2 h -2 z m 3,0 h 2 v 2 h -2 z m 3,0 h 2 v 2 h -2 z m 3,0 h 2 v 2 h -2 z m 3,0 h 2 v 2 h -2 z m 3,0 h 2 v 2 h -2 z m 3,0 h 2 v 2 h -2 z m 3,0 h 2 v 2 h -2 z m 3,0 h 2 v 2 h -2 z m 3,0 h 2 v 2 h -2 z m -36,3 h 2 v 2 h -2 z m 3,0 h 2 v 2 h -2 z m 3,0 h 2 v 2 h -2 z m 3,0 h 2 v 2 h -2 z m 3,0 h 2 v 2 h -2 z m 3,0 h 2 v 2 h -2 z m 3,0 h 2 v 2 h -2 z m 3,0 h 2 v 2 h -2 z m 3,0 h 2 v 2 h -2 z m 3,0 h 2 v 2 h -2 z m 3,0 h 2 v 2 h -2 v -1 z m 3,0 h 2 v 2 h -2 v -1 z m 3,0 h 2 v 2 h -2 v -1 z m -36,3 h 2 v 2 h -2 z m 3,0 h 2 v 2 h -2 z m 3,0 h 2 v 2 h -2 z m 3,0 h 2 v 2 h -2 z m 3,0 h 2 v 2 h -2 z m 3,0 h 2 v 2 h -2 z m 3,0 h 2 v 2 h -2 z m 3,0 h 2 v 2 h -2 z m 3,0 h 2 v 2 h -2 z m 3,0 h 2 v 2 h -2 z m 3,0 h 2 v 2 h -2 z m 3,0 h 2 v 2 h -2 z m 3,0 h 2 v 2 h -2 z m -36,3 h 2 v 2 h -2 z m 3,0 h 2 v 2 h -2 z m 3,0 h 2 v 2 h -2 z m 3,0 h 2 v 2 h -2 z m 3,0 h 2 v 2 h -2 z m 3,0 h 2 v 2 h -2 z m 3,0 h 2 v 2 h -2 z m 3,0 h 2 v 2 h -2 z m 3,0 h 2 v 2 h -2 z m 3,0 h 2 v 2 h -2 z m 3,0 h 2 v 2 h -2 z m 3,0 h 2 v 2 h -2 z m 3,0 h 2 v 2 h -2 z"
           id="path1192" />
        <rect
           opacity="0.5"
           x="10"
           y="-4"
           width="30"
           height="1"
           transform="scale(1,-1)"
           id="rect1194" />
      </g>
      <rect
         opacity="0.25"
         x="10"
         y="-61"
         width="44"
         height="1"
         transform="scale(1,-1)"
         id="rect1198" />
      <path
         fill="#afafaf"
         d="M 54,17 40,3 v 14 z"
         id="path1200" />
    </g>
    <path
       opacity="0.2"
       fill="url(#b)"
       fill-rule="evenodd"
       d="M 30.97272,12.89992 43.25386,22.915004 V 12.89992 Z"
       id="path1204"
       style="fill:url(#b);stroke-width:0.79217" />
    <path
       id="use1206"
       d="M 4.6559906,44.3759 V 2.8848349 H 30.97272 L 43.25386,12.89992 V 44.3759 H 30.97272 Z"
       style="opacity:0.7;fill:#3771c8;stroke-width:0.79217" />
    <path
       color-interpolation-filters="linearRGB"
       color="#000000"
       image-rendering="auto"
       color-rendering="auto"
       d="m 30.97272,19.345342 -7.017795,0.0028 -3.895753,5.501859 -1.364085,-1.927903 h -1.754448 v 0.715362 h 1.252677 l 1.871119,2.641837 4.403666,-6.218652 h 5.63178 v 0.715362 h 0.877225 z m -4.386122,2.14609 c -1.457947,0 -2.631673,0.957156 -2.631673,2.146089 0,1.188933 1.173726,2.146089 2.631673,2.146089 0.678094,0 1.288642,-0.213177 1.754448,-0.554406 v 0.554406 h 0.877224 v -4.292178 h -0.877224 v 0.554406 C 27.87524,21.704609 27.264692,21.491432 26.586598,21.491432 m 0,0.715363 c 0.971964,0 1.754448,0.638104 1.754448,1.430726 0,0.792623 -0.782484,1.430727 -1.754448,1.430727 -0.971965,0 -1.754449,-0.638104 -1.754449,-1.430727 0,-0.792622 0.782484,-1.430726 1.754449,-1.430726 m -10.51792,5.000389 c -0.0052,0 -0.0087,0.159525 -0.0087,0.357681 0,0.198155 0.0035,0.357681 0.0087,0.357681 h 15.772494 c 0.0052,0 0.0087,-0.159526 0.0087,-0.357681 0,-0.198156 -0.0035,-0.357681 -0.0087,-0.357681 z m 7.017794,2.146089 c -0.0052,0 -0.0087,0.159526 -0.0087,0.357682 0,0.198156 0.0035,0.357682 0.0087,0.357682 h 1.736905 c 0.0052,0 0.0087,-0.159526 0.0087,-0.357682 0,-0.198156 -0.0035,-0.357682 -0.0087,-0.357682 z"
       color-interpolation="sRGB"
       text-rendering="auto"
       fill="#afafaf"
       shape-rendering="auto"
       id="path1208"
       style="stroke-width:0.79217" />
  </g>
</svg>
