<?xml version="1.0" encoding="UTF-8" standalone="no"?>
<!-- Created with Inkscape (http://www.inkscape.org/) -->

<svg
   width="48px"
   height="48px"
   id="svg1325"
   sodipodi:version="0.32"
   inkscape:version="1.2.2 (b0a8486541, 2022-12-01)"
   sodipodi:docname="mate-panel.svg"
   inkscape:output_extension="org.inkscape.output.svg.inkscape"
   version="1.1"
   xmlns:inkscape="http://www.inkscape.org/namespaces/inkscape"
   xmlns:sodipodi="http://sodipodi.sourceforge.net/DTD/sodipodi-0.dtd"
   xmlns:xlink="http://www.w3.org/1999/xlink"
   xmlns="http://www.w3.org/2000/svg"
   xmlns:svg="http://www.w3.org/2000/svg"
   xmlns:rdf="http://www.w3.org/1999/02/22-rdf-syntax-ns#"
   xmlns:cc="http://creativecommons.org/ns#"
   xmlns:dc="http://purl.org/dc/elements/1.1/">
  <sodipodi:namedview
     inkscape:window-height="715"
     inkscape:window-width="1366"
     inkscape:pageshadow="2"
     inkscape:pageopacity="0.0"
     guidetolerance="10.0"
     gridtolerance="10.0"
     objecttolerance="10.0"
     borderopacity="1.0"
     bordercolor="#666666"
     pagecolor="#ffffff"
     id="base"
     showgrid="false"
     inkscape:zoom="6.9532165"
     inkscape:cx="20.853658"
     inkscape:cy="33.437762"
     inkscape:window-x="0"
     inkscape:window-y="0"
     inkscape:window-maximized="1"
     inkscape:current-layer="layer1"
     inkscape:showpageshadow="2"
     inkscape:pagecheckerboard="0"
     inkscape:deskcolor="#d1d1d1" />
  <defs
     id="defs1327">
    <linearGradient
       inkscape:collect="always"
       id="linearGradient2270">
      <stop
         style="stop-color:#ffffff;stop-opacity:1;"
         offset="0"
         id="stop2272" />
      <stop
         style="stop-color:#ffffff;stop-opacity:0;"
         offset="1"
         id="stop2274" />
    </linearGradient>
    <linearGradient
       inkscape:collect="always"
       id="linearGradient2262">
      <stop
         style="stop-color:#d3d7cf;stop-opacity:1;"
         offset="0"
         id="stop2264" />
      <stop
         style="stop-color:#d3d7cf;stop-opacity:0;"
         offset="1"
         id="stop2266" />
    </linearGradient>
    <linearGradient
       inkscape:collect="always"
       id="linearGradient2252">
      <stop
         style="stop-color:#888a85;stop-opacity:1;"
         offset="0"
         id="stop2254" />
      <stop
         style="stop-color:#888a85;stop-opacity:0;"
         offset="1"
         id="stop2256" />
    </linearGradient>
    <linearGradient
       inkscape:collect="always"
       xlink:href="#linearGradient2252"
       id="linearGradient2258"
       x1="31.874874"
       y1="17.4375"
       x2="47.437664"
       y2="17.4375"
       gradientUnits="userSpaceOnUse"
       gradientTransform="translate(0,-8)" />
    <linearGradient
       inkscape:collect="always"
       xlink:href="#linearGradient2262"
       id="linearGradient2268"
       x1="31.872892"
       y1="20.6875"
       x2="46.704754"
       y2="20.6875"
       gradientUnits="userSpaceOnUse"
       gradientTransform="translate(0,-8)" />
    <linearGradient
       inkscape:collect="always"
       xlink:href="#linearGradient2270"
       id="linearGradient1341"
       gradientUnits="userSpaceOnUse"
       x1="23.99696"
       y1="18.375"
       x2="45.753761"
       y2="18.375"
       gradientTransform="translate(0,-8)" />
    <radialGradient
       inkscape:collect="always"
       xlink:href="#linearGradient2270"
       id="radialGradient2218"
       cx="3.6239223"
       cy="2.0049825"
       fx="3.6239223"
       fy="2.0049825"
       r="23"
       gradientTransform="matrix(1.246687e-8,1.125998,-1.627297,3.116107e-17,6.886624,6.5312)"
       gradientUnits="userSpaceOnUse" />
    <linearGradient
       id="b-8"
       x1="-41.259998"
       x2="-2.994"
       y1="-0.88300002"
       y2="37.956001"
       gradientTransform="matrix(0.94991552,0,0,0.67280157,43.21257,10.929279)"
       gradientUnits="userSpaceOnUse">
      <stop
         stop-color="#21c9fb"
         offset="0"
         id="stop6948" />
      <stop
         stop-color="#1a86f2"
         offset="1"
         id="stop6950" />
    </linearGradient>
    <linearGradient
       id="a-4"
       x1="4"
       x2="44"
       y1="4"
       y2="44"
       gradientTransform="matrix(0.90141441,0,0,0.64809412,1.6632844,8.6378287)"
       gradientUnits="userSpaceOnUse">
      <stop
         offset="0"
         id="stop6953" />
      <stop
         stop-opacity="0"
         offset="1"
         id="stop6955" />
    </linearGradient>
  </defs>
  <sodipodi:namedview
     id="namedview18"
     pagecolor="#ffffff"
     bordercolor="#666666"
     borderopacity="1.0"
     inkscape:pageopacity="0"
     inkscape:pageshadow="2"
     inkscape:zoom="1"
     inkscape:cx="29.202731"
     inkscape:cy="14.650528"
     inkscape:current-layer="layer1"
     showgrid="false"
     inkscape:grid-bbox="true"
     inkscape:document-units="px"
     stroke="#eeeeec"
     fill="#2e3436"
     inkscape:window-width="1270"
     inkscape:window-height="943"
     inkscape:window-x="0"
     inkscape:window-y="25"
     showborder="false"
     inkscape:grid-points="true"
     showguides="false"
     inkscape:guide-bbox="true"
     inkscape:showpageshadow="false">
    <sodipodi:guide
       orientation="vertical"
       position="31.875"
       id="guide2260"
       inkscape:locked="false" />
    <inkscape:grid
       id="GridFromPre046Settings"
       type="xygrid"
       originx="0px"
       originy="0px"
       spacingx="0.5px"
       spacingy="0.5px"
       color="#3f3fff"
       empcolor="#3f3fff"
       opacity="0.15"
       empopacity="0.38"
       empspacing="2" />
  </sodipodi:namedview>
  <metadata
     id="metadata1330">
    <rdf:RDF>
      <cc:Work
         rdf:about="">
        <dc:format>image/svg+xml</dc:format>
        <dc:type
           rdf:resource="http://purl.org/dc/dcmitype/StillImage" />
        <dc:title>Mate Panel</dc:title>
        <dc:creator>
          <cc:Agent>
            <dc:title>Lapo Calamandrei</dc:title>
          </cc:Agent>
        </dc:creator>
        <dc:subject>
          <rdf:Bag>
            <rdf:li>panel</rdf:li>
            <rdf:li>menu</rdf:li>
          </rdf:Bag>
        </dc:subject>
        <dc:contributor>
          <cc:Agent>
            <dc:title>Andreas Nilsson</dc:title>
          </cc:Agent>
        </dc:contributor>
        <cc:license
           rdf:resource="http://creativecommons.org/licenses/GPL/2.0/" />
      </cc:Work>
      <cc:License
         rdf:about="http://creativecommons.org/licenses/GPL/2.0/">
        <cc:permits
           rdf:resource="http://web.resource.org/cc/Reproduction" />
        <cc:permits
           rdf:resource="http://web.resource.org/cc/Distribution" />
        <cc:requires
           rdf:resource="http://web.resource.org/cc/Notice" />
        <cc:permits
           rdf:resource="http://web.resource.org/cc/DerivativeWorks" />
        <cc:requires
           rdf:resource="http://web.resource.org/cc/ShareAlike" />
        <cc:requires
           rdf:resource="http://web.resource.org/cc/SourceCode" />
      </cc:License>
    </rdf:RDF>
  </metadata>
  <g
     id="layer1"
     inkscape:label="Layer 1"
     inkscape:groupmode="layer">
    <rect
       style="opacity:1;fill:url(#linearGradient2268);fill-opacity:1;stroke:url(#linearGradient2258);stroke-width:0.99999952;stroke-linecap:butt;stroke-linejoin:round;stroke-miterlimit:4;stroke-dasharray:none;stroke-dashoffset:0;stroke-opacity:1"
       id="rect1333"
       width="46"
       height="29"
       x="2.5"
       y="9.5" />
    <rect
       style="opacity:0.4;fill:none;fill-opacity:1;stroke:url(#linearGradient1341);stroke-width:0.99999976;stroke-linecap:butt;stroke-linejoin:round;stroke-miterlimit:4;stroke-dasharray:none;stroke-dashoffset:0;stroke-opacity:1"
       id="rect2210"
       width="45"
       height="27"
       x="3.5"
       y="10.5" />
    <rect
       style="opacity:1;fill:none;fill-opacity:1;stroke:url(#radialGradient2218);stroke-width:0.99999976;stroke-linecap:butt;stroke-linejoin:round;stroke-miterlimit:4;stroke-dasharray:none;stroke-dashoffset:0;stroke-opacity:1"
       id="rect2216"
       width="45"
       height="27"
       x="3.5"
       y="10.5" />
    <path
       d="M 4.980495,11.022801 V 37.153955 H 41.325522 V 11.022801 Z"
       fill="url(#b)"
       stroke-linejoin="bevel"
       stroke-width="1.54089"
       id="path6960"
       style="fill:url(#b-8)" />
    <path
       d="m 8.874605,34.354189 3.60566,2.799766 H 41.325522 V 16.622334 l -3.89411,-2.799766 -0.252624,20.408244 -14.630223,0.09412 -0.07918,0.399219 -0.377067,0.527354 0.04232,-1.336384 -12.9803669,-0.08054 -0.1503646,0.0531 12.7390875,-0.04022 0.111891,0.506748 z"
       fill="url(#a)"
       fill-rule="evenodd"
       opacity="0.2"
       id="path6962"
       sodipodi:nodetypes="ccccccccccccccc"
       style="fill:url(#a-4);stroke-width:1.10064" />
    <rect
       x="4.9805102"
       y="36.22068"
       width="36.344997"
       height="0.93325549"
       opacity="0.15"
       id="rect6964"
       style="stroke-width:1.10064" />
    <path
       id="path0-0-7-5"
       d="m 20.751173,13.469937 c -0.01869,0.01484 -0.164435,0.03182 -0.324067,0.03854 -0.159503,0.0075 -0.317903,0.02203 -0.351924,0.03378 -0.03388,0.01148 -0.117343,0.02436 -0.185243,0.02791 -0.166447,0.0084 -0.19403,-0.02109 0.530248,0.577563 0.680288,0.562278 0.728186,0.58755 0.664984,0.351072 -0.02064,-0.07615 -0.03738,-0.207518 -0.0379,-0.291922 -3.38e-4,-0.08455 -0.01597,-0.201732 -0.03414,-0.260751 -0.01843,-0.05889 -0.04232,-0.192988 -0.05322,-0.297905 -0.02051,-0.19687 -0.09839,-0.263533 -0.208621,-0.178401 m 0.489685,-0.0084 c -0.02869,0.0084 -0.02259,0.02977 0.02311,0.07933 0.03401,0.03686 0.06192,0.0755 0.06192,0.08577 0,0.0099 0.02531,0.0406 0.05646,0.06785 0.07503,0.06552 0.472083,0.551508 0.53666,0.656937 0.02817,0.04582 0.0771,0.126289 0.108646,0.178747 0.03154,0.05226 0.09761,0.143553 0.146807,0.202563 0.257155,0.308264 0.666633,0.849207 0.793828,1.048625 0.378481,0.593177 0.42695,0.678672 0.42695,0.752754 0,0.04312 0.01298,0.08427 0.027,0.09137 0.01467,0.0075 0.03531,0.04526 0.04556,0.08474 0.01376,0.05394 0.0357,0.07186 0.08658,0.07186 0.03725,0 0.08982,0.01484 0.116564,0.03294 0.02674,0.01801 0.206933,0.06141 0.400302,0.09598 0.193368,0.03472 0.390137,0.08409 0.437191,0.109975 0.04699,0.02585 0.100339,0.04713 0.118381,0.04713 0.05659,0 0.298549,0.113279 0.533818,0.249823 0.124611,0.07233 0.23584,0.131543 0.247263,0.131543 0.01778,0 0.270238,0.272128 0.387853,0.417996 0.02077,0.02566 0.121107,0.147697 0.22286,0.270858 0.219952,0.266221 0.218122,0.273621 -0.05127,0.204943 -0.873592,-0.222488 -1.424284,-0.232968 -1.940345,-0.03677 -0.247665,0.09401 -0.288242,0.148154 -0.268576,0.358585 0.0091,0.08511 0.027,0.165093 0.04206,0.177505 0.01519,0.01325 0.02752,0.09631 0.02752,0.186315 0,0.09006 0.01558,0.186231 0.03492,0.213874 0.03271,0.04732 0.06983,0.256319 0.108645,0.611777 0.01623,0.147846 0.08567,0.266081 0.229026,0.389074 0.02648,0.02277 0.108775,0.1141 0.182854,0.202955 0.336088,0.403157 0.484791,0.407908 1.699169,0.05413 0.144368,-0.0419 0.345875,-0.09781 0.447784,-0.123815 0.102026,-0.02604 0.213099,-0.05637 0.247068,-0.06738 0.03388,-0.01148 0.159049,-0.04666 0.277897,-0.07951 0.1189,-0.03266 0.320524,-0.0881 0.447888,-0.122975 0.127337,-0.0349 0.377559,-0.104711 0.555923,-0.15507 0.178363,-0.0503 0.463204,-0.130562 0.633052,-0.178289 0.169861,-0.04769 0.378391,-0.106513 0.463308,-0.130572 0.08489,-0.02408 0.279455,-0.07765 0.432325,-0.119195 0.152895,-0.04153 0.305765,-0.08455 0.339748,-0.0958 0.03401,-0.01148 0.162527,-0.04806 0.285646,-0.08175 0.123053,-0.03378 0.324665,-0.08922 0.447783,-0.122994 0.123184,-0.03378 0.251767,-0.07093 0.285659,-0.08231 0.03401,-0.01148 0.17996,-0.05236 0.324341,-0.0909 0.282478,-0.07559 0.512503,-0.14108 0.84924,-0.242367 0.03388,-0.0099 0.103454,-0.02949 0.154441,-0.04284 0.375236,-0.09812 1.116662,-0.310317 1.273594,-0.364446 0.07204,-0.02482 0.139383,-0.04517 0.149781,-0.04517 0.01038,0 0.06256,-0.01484 0.116044,-0.03341 0.05348,-0.01857 0.163111,-0.05198 0.24359,-0.07457 0.241331,-0.06775 0.245523,-0.09025 0.04439,-0.240584 -0.09645,-0.07214 -0.175365,-0.139447 -0.175365,-0.149638 0,-0.0099 -0.03466,-0.04984 -0.0771,-0.08791 -0.04245,-0.03817 -0.0771,-0.07839 -0.0771,-0.0894 0,-0.01148 -0.08333,-0.09043 -0.185373,-0.176208 -0.101895,-0.08577 -0.185268,-0.170646 -0.185268,-0.188387 0,-0.01773 -0.02116,-0.0322 -0.04725,-0.0322 -0.02596,0 -0.05789,-0.02193 -0.07074,-0.04881 -0.01298,-0.02706 -0.0575,-0.06197 -0.0993,-0.07821 -0.04193,-0.01643 -0.09294,-0.05572 -0.113578,-0.0881 -0.05919,-0.09267 -0.813596,-0.649891 -0.950721,-0.702042 -0.06789,-0.02585 -0.218252,-0.116871 -0.333972,-0.202367 -0.115785,-0.08549 -0.22935,-0.160846 -0.252338,-0.16736 -0.02297,-0.0075 -0.131452,-0.07774 -0.24102,-0.158215 -0.109424,-0.08045 -0.252987,-0.165345 -0.318966,-0.188611 -0.06594,-0.02324 -0.15065,-0.06337 -0.188202,-0.08941 -0.03764,-0.02604 -0.09489,-0.05898 -0.127338,-0.07345 -0.03245,-0.01484 -0.137488,-0.06663 -0.233374,-0.115892 -0.09605,-0.04918 -0.185632,-0.08941 -0.199287,-0.08941 -0.01363,0 -0.0575,-0.02678 -0.09748,-0.05954 -0.03985,-0.03276 -0.08892,-0.05954 -0.108905,-0.05954 -0.01999,0 -0.07697,-0.02949 -0.127078,-0.06551 -0.105401,-0.07597 -0.402872,-0.197495 -0.48261,-0.197001 -0.02986,2.15e-4 -0.109684,-0.02632 -0.176961,-0.05926 -0.0675,-0.03276 -0.148016,-0.05954 -0.179467,-0.05954 -0.03141,0 -0.12552,-0.0266 -0.209088,-0.05945 -0.08359,-0.03276 -0.168848,-0.05954 -0.189604,-0.05954 -0.02064,-5.6e-5 -0.0871,-0.02165 -0.1476,-0.04769 -0.06049,-0.02623 -0.130387,-0.0476 -0.155388,-0.0476 -0.02492,0 -0.04543,-0.01148 -0.04543,-0.02389 0,-0.01325 -0.0244,-0.02389 -0.054,-0.02408 -0.02972,-2.8e-5 -0.09398,-0.01642 -0.142538,-0.03565 -0.04855,-0.01969 -0.107737,-0.03556 -0.131296,-0.03556 -0.0235,0 -0.04258,-0.0099 -0.04258,-0.02371 0,-0.01325 -0.05387,-0.02389 -0.119808,-0.02389 -0.06867,0 -0.136126,-0.01484 -0.158179,-0.03565 -0.02116,-0.0196 -0.06373,-0.03565 -0.0945,-0.03565 -0.03089,0 -0.0649,-0.01148 -0.07529,-0.02389 -0.01168,-0.01325 -0.05218,-0.02389 -0.09255,-0.02389 -0.04037,0 -0.08217,-0.0099 -0.09268,-0.0237 -0.01168,-0.01325 -0.05088,-0.02389 -0.08982,-0.02389 -0.07646,0 -0.253092,-0.06057 -0.282077,-0.09681 -0.01038,-0.01148 -0.05789,-0.0223 -0.106958,-0.0223 -0.04894,0 -0.09761,-0.0099 -0.107997,-0.0237 -0.01168,-0.01325 -0.05322,-0.02389 -0.09489,-0.02389 -0.0418,0 -0.09995,-0.0099 -0.129414,-0.02277 -0.02947,-0.01325 -0.109165,-0.04013 -0.177221,-0.06159 -0.06802,-0.02137 -0.147587,-0.04872 -0.177078,-0.06076 -0.02947,-0.01148 -0.115656,-0.02193 -0.191188,-0.02193 -0.07568,0 -0.146211,-0.01148 -0.156725,-0.02389 -0.01168,-0.01325 -0.07217,-0.0237 -0.13693,-0.0237 -0.06724,0 -0.134542,-0.01484 -0.156453,-0.03565 -0.0244,-0.02277 -0.09255,-0.03565 -0.187176,-0.03565 -0.08191,0 -0.157426,-0.0099 -0.167927,-0.02389 -0.01038,-0.01325 -0.07996,-0.02389 -0.154376,-0.02389 -0.07451,0 -0.143952,-0.01148 -0.154466,-0.02389 -0.01168,-0.01335 -0.06529,-0.0237 -0.121367,-0.0237 -0.05646,0 -0.119808,-0.01652 -0.140954,-0.03584 -0.02674,-0.02492 -0.09787,-0.03565 -0.233594,-0.03565 -0.107218,0 -0.203701,-0.0099 -0.214215,-0.0237 -0.01168,-0.01325 -0.05919,-0.02389 -0.108127,-0.02389 -0.04881,0 -0.09748,-0.01157 -0.107996,-0.02389 -0.01168,-0.01325 -0.06438,-0.0237 -0.11942,-0.0237 -0.0553,0 -0.127337,-0.01642 -0.160372,-0.03509 -0.05906,-0.03453 -2.277808,-0.05366 -2.384104,-0.02063 m -1.998146,0.173119 c -0.01038,0.01148 -0.09424,0.02958 -0.18754,0.03854 -0.09346,0.0084 -0.177338,0.02585 -0.186593,0.03742 -0.01038,0.01148 -0.07775,0.02109 -0.152208,0.02109 -0.07451,0 -0.143952,0.01148 -0.154427,0.02389 -0.01168,0.01325 -0.09995,0.02389 -0.198781,0.02389 -0.118641,0 -0.192201,0.01148 -0.216591,0.03444 -0.02038,0.01895 -0.06477,0.03761 -0.09865,0.04172 -0.06347,0.0084 0.464191,0.37641 0.811767,0.567475 0.08346,0.04582 0.359283,0.209059 0.613036,0.362588 0.484285,0.293155 0.515113,0.303495 0.445694,0.149648 -0.02336,-0.05236 -0.0431,-0.136974 -0.04348,-0.187846 -1.56e-4,-0.05086 -0.01402,-0.131374 -0.03037,-0.17869 -0.06542,-0.188182 -0.224846,-0.687968 -0.250924,-0.786716 -0.04011,-0.151635 -0.270095,-0.248152 -0.350911,-0.147193 m -1.545507,0.287713 c -0.01168,0.01325 -0.05231,0.02389 -0.09268,0.02389 -0.0405,0 -0.081,0.0099 -0.08995,0.02044 -0.0091,0.01148 -0.09644,0.02679 -0.194355,0.03453 -0.09787,0.0084 -0.182867,0.02548 -0.188773,0.0392 -0.0065,0.01325 -0.03661,0.02501 -0.06802,0.02501 -0.03154,0 -0.06607,0.01148 -0.07645,0.02389 -0.01168,0.01335 -0.05919,0.02371 -0.108126,0.02371 -0.04881,0 -0.09761,0.01148 -0.107997,0.02389 -0.01168,0.01325 -0.05023,0.02389 -0.08827,0.02389 -0.03803,0 -0.08554,0.01325 -0.1054,0.02781 -0.04621,0.03565 -0.249509,0.09062 -0.337295,0.09109 -0.03725,2.05e-4 -0.07619,0.01148 -0.08671,0.02417 -0.01168,0.01325 -0.04452,0.02389 -0.07529,0.02389 -0.03089,0 -0.07347,0.01642 -0.0945,0.03565 -0.02116,0.0196 -0.07853,0.03565 -0.127337,0.03565 -0.04894,0 -0.08879,0.0099 -0.08879,0.021 0,0.01148 -0.04517,0.03444 -0.100468,0.05086 -0.182283,0.05432 -0.609156,0.217682 -0.627004,0.239996 -0.01038,0.01148 -0.0575,0.02193 -0.106569,0.02193 -0.04881,0 -0.09748,0.01148 -0.107996,0.02389 -0.01168,0.01325 -0.04959,0.02389 -0.08684,0.02408 -0.03725,1.49e-4 -0.137202,0.04806 -0.222081,0.106512 -0.08502,0.05842 -0.169705,0.10669 -0.188293,0.107026 -0.01869,3.08e-4 -0.05958,0.02249 -0.09099,0.04937 -0.03154,0.02679 -0.106698,0.06626 -0.166979,0.08791 -0.06036,0.02165 -0.152688,0.06402 -0.205246,0.09418 -0.05257,0.03024 -0.109164,0.05497 -0.125909,0.05497 -0.01648,0 -0.06295,0.02678 -0.102805,0.05954 -0.03985,0.03276 -0.08878,0.05954 -0.108775,0.05954 -0.01999,0 -0.0614,0.02146 -0.09203,0.0476 -0.03076,0.02623 -0.06854,0.04769 -0.08398,0.04769 -0.01532,0 -0.07373,0.02678 -0.129414,0.05954 -0.05569,0.03276 -0.11254,0.05954 -0.126559,0.05954 -0.01376,0 -0.112929,0.06178 -0.220017,0.136993 -0.278585,0.196123 -0.447862,0.304325 -0.535168,0.342262 -0.04193,0.01829 -0.12526,0.06785 -0.185268,0.110311 -0.05997,0.04246 -0.124093,0.07737 -0.142031,0.07746 -0.01817,1.68e-4 -0.0736,0.03322 -0.123444,0.07354 -0.04984,0.04041 -0.14978,0.09439 -0.222029,0.119709 -0.141317,0.04984 -1.304773,0.926452 -1.304773,0.983007 0,0.01717 -0.03583,0.05702 -0.07944,0.08857 -0.04361,0.03164 -0.108776,0.09795 -0.144627,0.147184 -0.03596,0.04918 -0.07658,0.0895 -0.09047,0.0895 -0.01376,0 -0.02518,0.01642 -0.02518,0.03518 0,0.01941 -0.034787,0.05282 -0.077363,0.07419 -0.042576,0.02137 -0.077363,0.05301 -0.077363,0.07027 0,0.01736 -0.034787,0.05235 -0.077103,0.07821 -0.120977,0.07345 -0.094108,0.106195 0.146782,0.179763 0.123054,0.03761 0.293253,0.09239 0.378222,0.12165 0.08489,0.0293 0.453197,0.141584 0.818412,0.249385 0.365151,0.107837 0.691802,0.20456 0.725693,0.215115 0.03388,0.0099 0.124352,0.03761 0.200781,0.06057 0.07645,0.02277 0.166785,0.05002 0.200754,0.06076 0.03388,0.0099 0.325833,0.09566 0.648564,0.189321 0.322731,0.09373 0.670138,0.195321 0.772008,0.226053 0.102025,0.0308 0.359049,0.106018 0.571421,0.167136 0.212268,0.06132 0.413788,0.120185 0.447784,0.131057 0.03388,0.01148 0.325794,0.09683 0.648551,0.19087 0.322705,0.09419 0.670124,0.196208 0.772085,0.226968 0.101896,0.03061 0.352067,0.103544 0.55591,0.161985 0.203805,0.05842 0.627653,0.181397 0.941895,0.273369 0.8843,0.258465 0.919373,0.267172 1.076072,0.267172 0.214358,0 0.389048,-0.09372 0.55961,-0.299911 0.0749,-0.09071 0.159944,-0.186249 0.188903,-0.212483 0.09021,-0.08147 0.368149,-0.531816 0.368149,-0.596472 0,-0.01932 0.01376,-0.03509 0.03089,-0.03509 0.01688,0 0.03089,-0.02622 0.03089,-0.05814 0,-0.03201 0.01376,-0.06486 0.03089,-0.07289 0.01687,-0.0084 0.03089,-0.03425 0.03089,-0.05814 0,-0.02389 0.0209,-0.05665 0.04634,-0.07307 0.02544,-0.01642 0.04634,-0.04984 0.04634,-0.07466 0,-0.02482 0.01298,-0.06374 0.02726,-0.08633 0.01493,-0.02277 0.04465,-0.07363 0.06607,-0.112942 0.02142,-0.03938 0.05621,-0.103713 0.07762,-0.1429 0.02142,-0.03938 0.05491,-0.09878 0.07464,-0.131879 0.05932,-0.100241 -0.01168,-0.360199 -0.13854,-0.514485 -0.0588,-0.07102 -0.106958,-0.134678 -0.106958,-0.141416 0,-0.0075 -0.08113,-0.111132 -0.180232,-0.231886 -0.165046,-0.2012 -0.242448,-0.305342 -0.508623,-0.684337 -0.05075,-0.07205 -0.106958,-0.145691 -0.125261,-0.163637 -0.03647,-0.03565 -0.03492,-0.02202 -0.06386,-0.563304 -0.01947,-0.362262 -0.03505,-0.44493 -0.126299,-0.667315 -0.02142,-0.05236 -0.05724,-0.143554 -0.07918,-0.202573 C 18.899096,15.511433 18.737503,15.23714 18.21699,14.399898 17.935927,13.94781 17.788041,13.811779 17.698814,13.923247 M 8.51697,19.519961 c -0.05309,0.04806 -0.097093,0.110796 -0.097612,0.139625 -3.634e-4,0.02884 -0.014927,0.05879 -0.031802,0.06682 -0.016875,0.0084 -0.030893,0.03061 -0.030893,0.0503 0,0.01941 -0.034787,0.0643 -0.077233,0.09961 -0.042576,0.03537 -0.077103,0.08325 -0.077103,0.106503 0,0.02324 -0.01298,0.06085 -0.028297,0.08362 -0.085411,0.125439 -0.1879298,0.31294 -0.1879298,0.343914 0,0.0196 -0.027778,0.05497 -0.061787,0.07867 -0.037124,0.02622 -0.061787,0.07345 -0.061787,0.119186 0,0.07653 -0.071911,0.213697 -0.1255201,0.239221 -0.015966,0.0084 -0.029076,0.0448 -0.029076,0.0825 0,0.0378 -0.013759,0.07541 -0.030893,0.08343 -0.016875,0.0084 -0.031023,0.05534 -0.031023,0.104693 0,0.04956 -0.010384,0.09763 -0.022067,0.107007 -0.041667,0.03201 -0.1323478,0.241302 -0.1323478,0.305314 0,0.03518 -0.013759,0.07074 -0.031023,0.07886 -0.016875,0.0084 -0.030893,0.04554 -0.030893,0.08334 0,0.0378 -0.013889,0.07559 -0.031023,0.08343 -0.016875,0.0084 -0.030893,0.04956 -0.030893,0.09221 0,0.04246 -0.020509,0.09828 -0.045431,0.123647 -0.026091,0.0266 -0.045561,0.09944 -0.04634,0.171402 -3.764e-4,0.06878 -0.014927,0.12513 -0.031802,0.12513 -0.016875,0 -0.030893,0.05674 -0.030893,0.12627 0,0.06943 -0.01298,0.13647 -0.028557,0.148985 -0.015576,0.01335 -0.035047,0.103069 -0.043095,0.20135 -0.00909,0.09845 -0.036215,0.286015 -0.062565,0.417109 -0.056724,0.281209 -0.073209,1.690676 -0.020249,1.71593 0.017783,0.0084 0.031023,0.128733 0.031023,0.27979 0,0.145691 0.01324,0.297914 0.028946,0.338203 0.015966,0.04041 0.058542,0.239417 0.094497,0.442577 0.036085,0.203151 0.080089,0.401608 0.097742,0.440889 0.017524,0.03938 0.043614,0.108976 0.057763,0.15492 0.014149,0.04601 0.042446,0.126279 0.062695,0.178719 0.020249,0.05254 0.043354,0.156404 0.051013,0.231177 0.00779,0.07578 0.033489,0.148182 0.057633,0.163823 0.024143,0.01484 0.043744,0.05282 0.043744,0.08315 0,0.03052 0.013759,0.06187 0.030893,0.0699 0.016874,0.0084 0.031023,0.04554 0.031023,0.08343 0,0.0378 0.013889,0.07541 0.030893,0.08343 0.016875,0.0084 0.030893,0.04554 0.030893,0.08334 0,0.0378 0.01324,0.07485 0.029076,0.0825 0.051662,0.02482 0.1253904,0.161322 0.1277268,0.236953 0.00113,0.0406 0.028946,0.106046 0.061397,0.145392 0.032581,0.03938 0.067368,0.08745 0.077363,0.107166 0.010384,0.01978 0.030893,0.05431 0.0466,0.07727 0.015576,0.02277 0.028687,0.05768 0.028687,0.07774 0,0.01988 0.01298,0.05497 0.028687,0.07783 0.015576,0.02277 0.036734,0.05749 0.046599,0.07718 0.010384,0.01969 0.044653,0.06785 0.077233,0.107185 0.032581,0.03938 0.060229,0.09025 0.061527,0.11326 0.00114,0.02286 0.016225,0.04172 0.03323,0.04172 0.016874,0 0.030893,0.01484 0.030893,0.03378 0,0.01867 0.023235,0.06962 0.051532,0.11326 0.028297,0.04368 0.064902,0.10011 0.080868,0.125121 0.063604,0.09978 0.1856192,0.265344 0.2111905,0.286734 0.014928,0.01325 0.027129,0.03686 0.027129,0.05432 0,0.01736 0.043354,0.0685 0.096314,0.113279 0.1086457,0.09202 0.1815175,0.190533 0.1815175,0.244914 0,0.02006 0.048676,0.08231 0.1081264,0.13829 0.05945,0.056 0.1079967,0.1113 0.1079967,0.123162 0,0.01148 0.042835,0.05282 0.095146,0.09127 0.052311,0.03854 0.1230539,0.117058 0.1571143,0.174463 0.034009,0.05749 0.088526,0.126624 0.1211069,0.153455 0.032451,0.02706 0.059061,0.06225 0.059061,0.07867 0,0.01652 0.027778,0.0363 0.061787,0.0448 0.033879,0.0084 0.061787,0.02501 0.061787,0.03724 0,0.01148 0.04647,0.06243 0.1031939,0.111458 0.056854,0.04918 0.1159147,0.107353 0.1312057,0.129247 0.01532,0.02193 0.100858,0.09977 0.19024,0.172923 0.08918,0.07307 0.162125,0.145541 0.162125,0.160697 0,0.03892 1.2994,1.041131 1.37431,1.059796 0.03388,0.0084 0.156543,0.08623 0.272341,0.172867 0.115784,0.08661 0.234023,0.164467 0.262502,0.172866 0.02856,0.0084 0.09268,0.04872 0.142602,0.08941 0.04984,0.0406 0.1054,0.07419 0.123573,0.07457 0.01791,2.52e-4 0.08645,0.0378 0.152039,0.08343 0.06555,0.04554 0.131725,0.08278 0.146925,0.08278 0.01519,0 0.07061,0.02949 0.122794,0.06551 0.05231,0.03612 0.164721,0.09534 0.249859,0.131719 0.08515,0.0364 0.175183,0.08194 0.200248,0.101249 0.02492,0.01932 0.06529,0.03509 0.08982,0.03509 0.02427,0 0.04413,0.0099 0.04413,0.02109 0,0.01148 0.04595,0.0378 0.102025,0.05842 0.05608,0.02063 0.127727,0.05926 0.159192,0.08605 0.03128,0.02678 0.08281,0.04872 0.114097,0.04872 0.03128,0 0.05698,0.01148 0.05698,0.02389 0,0.01325 0.01882,0.02389 0.04154,0.02389 0.06399,0 0.220004,0.0657 0.282466,0.119037 0.03089,0.02632 0.08178,0.04778 0.113189,0.04778 0.03128,0 0.05698,0.01148 0.05698,0.0237 0,0.01325 0.027,0.02389 0.05984,0.02389 0.03297,0 0.06763,0.0099 0.07697,0.02146 0.01597,0.01978 0.585636,0.23994 0.758612,0.293033 0.04232,0.01325 0.116564,0.03892 0.164669,0.0573 0.04816,0.01848 0.107218,0.03369 0.131205,0.03369 0.02414,0 0.04387,0.01148 0.04387,0.02389 0,0.01325 0.02116,0.02389 0.04673,0.02389 0.04699,0 0.07256,0.0084 0.25143,0.08007 0.05348,0.02165 0.12565,0.0392 0.16036,0.0392 0.03453,0 0.07152,0.01148 0.08191,0.02389 0.06412,0.08017 0.386062,-0.08698 0.386062,-0.200324 0,-0.0084 0.02946,-0.03994 0.06568,-0.07214 0.03622,-0.0321 0.08126,-0.07951 0.100468,-0.105514 0.01908,-0.02604 0.215189,-0.254602 0.435803,-0.507896 0.220589,-0.253342 0.419448,-0.487263 0.441852,-0.519702 0.02259,-0.03248 0.0514,-0.06458 0.06451,-0.07149 0.01298,-0.0075 0.08593,-0.08754 0.162437,-0.179306 0.07645,-0.09174 0.158763,-0.183329 0.183101,-0.203506 0.0244,-0.02025 0.05802,-0.05347 0.07503,-0.07391 0.10579,-0.127249 0.773591,-0.878688 0.814012,-0.91599 0.02674,-0.02473 0.172029,-0.190869 0.235996,-0.269804 0.01687,-0.02109 0.07451,-0.08633 0.128246,-0.145392 0.158867,-0.175181 0.152377,-0.183861 -0.408804,-0.546776 -0.135541,-0.08745 -0.767165,-0.509875 -0.784818,-0.524648 -0.0091,-0.0075 -0.08502,-0.05515 -0.1699,-0.106839 -0.08502,-0.0517 -0.224963,-0.142732 -0.311322,-0.202573 -0.215513,-0.149339 -0.469915,-0.317661 -0.810896,-0.536183 l -0.288333,-0.184812 0.01752,-0.122817 c 0.05205,-0.366172 0.08009,-0.523547 0.125521,-0.706782 0.02778,-0.111468 0.06321,-0.282991 0.07879,-0.381319 0.01558,-0.09826 0.03725,-0.212316 0.0479,-0.253332 0.02661,-0.102397 0.02934,-0.102061 -0.527003,-0.07615 -0.271744,0.01325 -0.555144,0.02492 -0.629807,0.02734 l -0.135814,0.0047 -0.229168,-0.250215 c -0.12604,-0.137637 -0.237839,-0.265904 -0.248354,-0.284998 -0.01168,-0.01913 -0.04621,-0.05861 -0.07905,-0.08791 -0.0331,-0.0293 -0.07542,-0.07503 -0.0945,-0.101743 -0.01908,-0.0266 -0.150053,-0.178719 -0.291085,-0.337717 -0.300275,-0.338595 -0.299924,-0.303308 -0.0065,-0.538983 0.750914,-0.601941 0.751667,-0.602967 0.430286,-0.602967 -0.119938,0 -0.276183,-0.01148 -0.347406,-0.02436 -0.07126,-0.01325 -0.289307,-0.03518 -0.484687,-0.04844 -0.691049,-0.04666 -0.632222,-0.03182 -0.783924,-0.197561 -0.07399,-0.08063 -0.139616,-0.157244 -0.14612,-0.170422 -0.0065,-0.01335 -0.06529,-0.08455 -0.130517,-0.159036 -0.160463,-0.182974 -0.08697,-0.266426 0.427508,-0.485825 0.146691,-0.06253 0.414476,-0.190813 0.576251,-0.276001 0.09631,-0.05049 0.185333,-0.09202 0.198275,-0.09202 0.01324,0 0.04543,-0.01484 0.0723,-0.03378 0.04868,-0.0336 0.710234,-0.347591 0.73247,-0.347591 0.02856,0 0.276079,-0.149657 0.298405,-0.180445 0.03128,-0.04312 -0.575147,-0.04526 -2.360947,-0.0084 -1.576855,0.03266 -1.407072,0.06645 -1.709462,-0.341245 -0.01688,-0.02296 -0.162605,-0.210673 -0.323562,-0.417221 -0.160969,-0.206492 -0.308271,-0.396932 -0.327261,-0.423157 -0.01908,-0.02622 -0.120068,-0.152942 -0.224599,-0.281451 -0.104622,-0.128575 -0.190111,-0.24036 -0.190111,-0.248349 0,-0.0084 -0.01882,-0.03136 -0.0418,-0.05217 -0.02298,-0.02072 -0.07503,-0.08595 -0.115785,-0.144878 -0.04076,-0.05889 -0.08126,-0.112616 -0.08995,-0.119186 -0.02544,-0.01941 -0.1850226,-0.21254 -0.1850226,-0.224121 0,-0.0065 -0.1319714,-0.17255 -0.2933174,-0.370484 -0.1613849,-0.197944 -0.2934341,-0.370316 -0.2934341,-0.383102 0,-0.01325 -0.013759,-0.02324 -0.030893,-0.02324 -0.016875,0 -0.030893,-0.01148 -0.030893,-0.02548 0,-0.05086 -0.3993799,-0.488484 -0.5022753,-0.550471 l -0.1055303,-0.06356 -0.096444,0.08745 m 26.7796387,0.05749 c -0.05374,0.04601 -0.178428,0.190104 -0.551315,0.637544 -0.03816,0.04601 -0.109165,0.13073 -0.157712,0.188499 -0.04855,0.05767 -0.109035,0.130236 -0.134515,0.160856 -0.299107,0.360255 -0.41889,0.49791 -0.439139,0.504602 -0.01337,0.0047 -0.02414,0.01773 -0.02414,0.02977 0,0.01848 -0.615152,0.778979 -0.995775,1.231113 -0.06373,0.07569 -0.124742,0.153437 -0.135944,0.173147 -0.01168,0.01969 -0.06685,0.08661 -0.123832,0.148985 -0.05685,0.06216 -0.103324,0.119363 -0.103324,0.126764 0,0.0075 -0.03479,0.04853 -0.07736,0.09155 -0.04232,0.04302 -0.07697,0.08586 -0.07697,0.09532 0,0.0099 -0.01947,0.03248 -0.04361,0.05096 -0.02401,0.01848 -0.04946,0.04732 -0.05672,0.06383 -0.01622,0.03724 -0.348977,0.03836 -2.474006,0.0084 l -1.539601,-0.02146 0.04024,0.04974 c 0.02207,0.02735 0.27016,0.153269 0.551328,0.279977 1.283187,0.578338 1.938761,0.894768 1.956583,0.944399 0.01519,0.04209 -0.03609,0.108332 -0.378222,0.488344 -0.174612,0.193828 -0.09502,0.172792 -0.835676,0.221266 -0.212255,0.01325 -0.444266,0.03612 -0.515503,0.04909 -0.07126,0.01325 -0.234516,0.02389 -0.362892,0.02389 -0.149949,0 -0.233335,0.0099 -0.233335,0.02632 0,0.02818 0.282661,0.262805 0.708702,0.58824 0.222029,0.169582 0.25548,0.205233 0.224781,0.239231 -0.01999,0.02193 -0.05906,0.07466 -0.08697,0.117385 -0.02778,0.04246 -0.06205,0.07737 -0.07594,0.07737 -0.01402,0 -0.03336,0.01969 -0.04309,0.0434 -0.01038,0.02389 -0.04387,0.06486 -0.07555,0.09127 -0.03167,0.02641 -0.09398,0.08996 -0.138462,0.141276 -0.04452,0.05152 -0.115655,0.130889 -0.158295,0.17687 -0.04258,0.04601 -0.112021,0.120848 -0.154415,0.16682 -0.04244,0.04601 -0.108256,0.116731 -0.146535,0.157561 -0.03829,0.04078 -0.09696,0.105206 -0.130466,0.143059 -0.210035,0.237663 -0.235009,0.252436 -0.401872,0.238111 -0.377728,-0.03266 -1.145245,-0.05599 -1.172737,-0.03565 -0.01882,0.01325 -0.01597,0.06085 0.0078,0.129078 0.02064,0.05907 0.03725,0.154921 0.03725,0.212829 0,0.05795 0.01532,0.135518 0.0344,0.172447 0.03297,0.0644 0.07516,0.255796 0.106699,0.484154 0.0091,0.05898 0.03751,0.195377 0.06503,0.303122 0.05906,0.230402 0.07152,0.210934 -0.267915,0.419414 -0.474627,0.29167 -0.883223,0.565786 -0.982302,0.659018 -0.05621,0.05282 -0.161502,0.117068 -0.233984,0.142415 -0.07256,0.02548 -0.207283,0.09467 -0.299405,0.153773 -0.09203,0.05879 -0.306428,0.194397 -0.476302,0.300928 -0.789492,0.495008 -0.785649,0.491742 -0.687946,0.583359 0.01389,0.01325 0.125909,0.135173 0.2486,0.271251 0.266007,0.29475 0.330986,0.365575 0.451184,0.491406 0.05023,0.05235 0.154298,0.165988 0.23135,0.252399 0.07723,0.08633 0.161722,0.170879 0.187942,0.187649 0.02609,0.0168 0.04751,0.04396 0.04751,0.06047 0,0.01643 0.02116,0.0434 0.04686,0.05991 0.02583,0.01643 0.161371,0.153278 0.30117,0.303766 0.139786,0.150646 0.291305,0.312649 0.336737,0.360143 0.0453,0.0476 0.140214,0.156068 0.210827,0.241358 0.07061,0.08521 0.169458,0.197795 0.219705,0.250253 0.05024,0.05235 0.125391,0.132867 0.167253,0.178746 0.04193,0.04601 0.110852,0.121006 0.153453,0.166829 0.04258,0.04601 0.112281,0.121006 0.154454,0.166801 0.04245,0.04601 0.111891,0.121034 0.154427,0.166829 0.04271,0.04601 0.11228,0.123647 0.154856,0.17281 0.104232,0.120185 0.277235,0.09748 0.794334,-0.104198 0.02947,-0.01148 0.07918,-0.0209 0.110462,-0.0209 0.03115,0 0.08943,-0.02679 0.129285,-0.05954 0.04024,-0.03313 0.107867,-0.05992 0.15213,-0.0601 0.04374,-2.33e-4 0.114227,-0.02165 0.156699,-0.04713 0.04245,-0.02567 0.107607,-0.04694 0.144887,-0.04713 0.03725,-2.42e-4 0.07568,-0.0099 0.08554,-0.02286 0.02323,-0.02912 0.199755,-0.09681 0.252391,-0.09681 0.02259,0 0.114227,-0.03518 0.2037,-0.0783 0.08957,-0.04302 0.204454,-0.09353 0.255415,-0.112112 0.05088,-0.01876 0.113578,-0.04694 0.138955,-0.06281 0.02544,-0.01652 0.143615,-0.06869 0.262476,-0.117049 0.1189,-0.04844 0.253091,-0.108332 0.298185,-0.133017 0.04504,-0.02473 0.09476,-0.04489 0.110463,-0.04489 0.01584,0 0.06114,-0.02678 0.100857,-0.05954 0.03985,-0.03276 0.08879,-0.05954 0.108776,-0.05954 0.01973,0 0.0614,-0.02137 0.09203,-0.04769 0.03076,-0.02622 0.07126,-0.0476 0.08995,-0.0476 0.01882,0 0.07165,-0.02678 0.117473,-0.05954 0.04569,-0.03276 0.102026,-0.05954 0.124871,-0.05954 0.02285,0 0.08866,-0.03761 0.146354,-0.08325 0.05763,-0.04601 0.120587,-0.08343 0.139616,-0.08343 0.01908,0 0.06763,-0.02679 0.107348,-0.05954 0.03998,-0.03276 0.08749,-0.05992 0.10579,-0.06048 0.01817,-3.64e-4 0.151364,-0.08605 0.295745,-0.190431 0.144367,-0.104235 0.277416,-0.189702 0.295731,-0.189833 0.01817,-1.21e-4 0.06581,-0.02716 0.10579,-0.05992 0.03985,-0.03276 0.08995,-0.05954 0.111372,-0.05954 0.02142,0 0.04751,-0.021 0.05789,-0.04638 0.01168,-0.02548 0.04621,-0.05301 0.07931,-0.06103 0.03323,-0.0084 0.0601,-0.03042 0.0601,-0.04974 0,-0.01913 0.0244,-0.04125 0.05413,-0.04937 0.07087,-0.01904 0.316578,-0.200902 0.316578,-0.234126 0,-0.03425 0.254843,-0.226445 0.300145,-0.226445 0.01947,0 0.044,-0.0209 0.05452,-0.04638 0.01168,-0.02548 0.04712,-0.05338 0.08126,-0.06169 0.03427,-0.0084 0.08723,-0.04666 0.117473,-0.08511 0.03037,-0.03854 0.126558,-0.127735 0.21402,-0.198429 0.08749,-0.07046 0.1591,-0.137459 0.159308,-0.148332 5.2e-5,-0.01148 0.06231,-0.07345 0.138111,-0.139111 0.07581,-0.06551 0.138202,-0.126605 0.138631,-0.135658 3.5e-4,-0.0084 0.05646,-0.06607 0.124351,-0.126624 0.06802,-0.06057 0.123574,-0.117534 0.123703,-0.126586 7.8e-5,-0.0099 0.03829,-0.04872 0.08489,-0.0881 0.09891,-0.08362 0.25583,-0.314638 0.255168,-0.37571 -1.69e-4,-0.02324 0.03427,-0.08455 0.07671,-0.136488 0.04245,-0.05189 0.07736,-0.103218 0.07736,-0.114082 0,-0.01148 0.04855,-0.05599 0.107997,-0.100427 0.05945,-0.04442 0.108126,-0.09267 0.108126,-0.107334 0,-0.01484 0.02674,-0.04853 0.05906,-0.07559 0.03245,-0.02678 0.08697,-0.09598 0.120977,-0.153445 0.03388,-0.05749 0.09813,-0.130722 0.142459,-0.162984 0.07749,-0.056 0.171679,-0.176665 0.171679,-0.219801 0,-0.01148 0.03479,-0.06309 0.07736,-0.115079 0.04257,-0.0518 0.07736,-0.110628 0.07736,-0.130572 0,-0.01988 0.01376,-0.0363 0.03089,-0.0363 0.01687,0 0.03089,-0.02137 0.03089,-0.04778 0,-0.02641 0.03661,-0.104068 0.08126,-0.172727 0.04465,-0.06887 0.09346,-0.143582 0.108127,-0.16639 0.01467,-0.02277 0.02674,-0.06225 0.02674,-0.08791 0,-0.02548 0.01389,-0.0532 0.03102,-0.06141 0.01687,-0.0084 0.03089,-0.03425 0.03089,-0.05814 0,-0.02389 0.0209,-0.05655 0.04634,-0.07307 0.02531,-0.01652 0.04634,-0.05973 0.04634,-0.09682 0,-0.03686 0.01376,-0.07373 0.03089,-0.08175 0.01687,-0.0084 0.03089,-0.05637 0.03089,-0.107175 0,-0.05086 0.01376,-0.09909 0.03089,-0.107194 0.01687,-0.0084 0.03089,-0.03966 0.03089,-0.0699 0,-0.03042 0.0209,-0.06859 0.04634,-0.08493 0.02531,-0.01642 0.04634,-0.05992 0.04634,-0.09682 0,-0.03705 0.01376,-0.07373 0.03089,-0.08194 0.01687,-0.0084 0.03102,-0.04554 0.03102,-0.08343 0,-0.03761 0.01376,-0.07522 0.03089,-0.08325 0.01687,-0.0084 0.03089,-0.05572 0.03089,-0.10571 0,-0.05189 0.01999,-0.103713 0.04634,-0.120661 0.02778,-0.01773 0.04634,-0.06999 0.04634,-0.130058 0,-0.112616 0.05322,-0.35753 0.09372,-0.430044 0.01454,-0.02623 0.03336,-0.09597 0.04154,-0.154911 0.0091,-0.05898 0.03518,-0.192998 0.05971,-0.297868 0.02466,-0.104851 0.05244,-0.319378 0.06153,-0.476688 0.01038,-0.157225 0.03297,-0.342645 0.0527,-0.411892 0.07775,-0.273295 -0.04595,-2.040386 -0.153596,-2.195708 -0.01778,-0.02548 -0.03232,-0.111626 -0.03232,-0.19113 0,-0.07951 -0.01298,-0.144562 -0.02726,-0.144562 -0.03219,0 -0.06373,-0.10388 -0.08645,-0.285566 -0.0091,-0.07186 -0.03583,-0.151962 -0.05945,-0.178075 -0.02375,-0.02622 -0.04309,-0.08203 -0.04309,-0.124132 0,-0.04209 -0.01376,-0.08334 -0.03089,-0.09137 -0.01687,-0.0084 -0.03089,-0.0462 -0.03089,-0.08474 0,-0.03854 -0.01402,-0.07018 -0.03102,-0.07018 -0.01687,0 -0.03128,-0.04013 -0.0318,-0.08941 -6.75e-4,-0.04918 -0.02142,-0.110143 -0.04634,-0.135649 -0.02492,-0.02548 -0.04543,-0.07046 -0.04543,-0.09977 0,-0.02949 -0.01376,-0.06029 -0.03089,-0.0685 -0.01687,-0.0084 -0.03089,-0.04554 -0.03089,-0.08343 0,-0.0378 -0.01376,-0.0755 -0.03089,-0.08343 -0.01687,-0.0084 -0.03089,-0.03621 -0.03089,-0.06262 0,-0.02632 -0.03479,-0.08297 -0.07723,-0.125933 -0.04984,-0.0503 -0.07736,-0.108995 -0.07736,-0.165289 0,-0.04778 -0.01376,-0.08707 -0.03089,-0.08707 -0.01687,0 -0.03089,-0.01643 -0.03089,-0.0363 0,-0.01988 -0.03466,-0.07867 -0.07723,-0.130721 -0.04245,-0.05189 -0.07697,-0.113269 -0.07671,-0.13647 6.88e-4,-0.05151 -0.149703,-0.285893 -0.224444,-0.350185 -0.0296,-0.02548 -0.054,-0.0699 -0.054,-0.09878 0,-0.02865 -0.0209,-0.06561 -0.04634,-0.08175 -0.02544,-0.01643 -0.04647,-0.04442 -0.04647,-0.06253 0,-0.04797 -0.04232,-0.04004 -0.113708,0.02072 m -13.216688,1.394611 c -0.01921,0.0099 -0.09593,0.104375 -0.169848,0.210626 -0.07399,0.106195 -0.186645,0.263505 -0.250352,0.349476 -0.06373,0.08586 -0.115915,0.172662 -0.115915,0.192727 0,0.02007 -0.01454,0.04321 -0.03206,0.0517 -0.04803,0.02286 -0.18401,0.196077 -0.18401,0.234331 0,0.01829 -0.0209,0.04666 -0.04634,0.06309 -0.02544,0.01643 -0.04634,0.04844 -0.04634,0.07149 0,0.02305 -0.02064,0.05497 -0.04582,0.07102 -0.04686,0.02996 -0.232089,0.279986 -0.232089,0.313229 0,0.0099 -0.03985,0.06458 -0.08853,0.120838 -0.04868,0.05637 -0.113448,0.145373 -0.144302,0.197803 -0.147457,0.251895 -0.296316,0.390838 -0.436102,0.406965 -0.07256,0.0084 -0.148119,0.03014 -0.167732,0.04844 -0.02375,0.02202 -0.102545,0.03332 -0.234659,0.03332 -0.109425,0 -0.22935,0.01325 -0.266422,0.02791 -0.03712,0.01484 -0.164786,0.0363 -0.283673,0.04638 -0.319888,0.02716 -0.66688,0.08399 -0.772098,0.126261 -0.05218,0.02109 -0.169264,0.03752 -0.268408,0.03752 -0.09657,1.22e-4 -0.184296,0.01148 -0.194784,0.02408 -0.01168,0.01325 -0.11228,0.02417 -0.225728,0.02473 -0.120588,4.1e-4 -0.238774,0.01484 -0.283855,0.0349 -0.04245,0.01876 -0.127337,0.03444 -0.188436,0.0349 -0.278091,0.0019 -0.38958,0.10026 -0.236282,0.207911 0.03816,0.02678 0.108386,0.08773 0.155804,0.135322 0.04738,0.0476 0.106439,0.08661 0.131179,0.08661 0.02479,0 0.04504,0.01148 0.04504,0.02678 0,0.01484 0.06607,0.08035 0.146626,0.145532 0.201417,0.163003 0.423446,0.346705 0.625381,0.517462 0.09346,0.07905 0.307246,0.253687 0.475017,0.388179 0.627406,0.502847 0.743697,0.643722 0.613647,0.742918 -0.02947,0.0223 -0.09995,0.541764 -0.120069,0.88383 -0.01168,0.192288 -0.0283,0.273108 -0.06386,0.303588 -0.03479,0.02968 -0.0553,0.118533 -0.07152,0.309925 -0.01298,0.147678 -0.03829,0.298632 -0.05737,0.335515 -0.01908,0.03696 -0.03453,0.178998 -0.03453,0.315795 v 0.24861 h 0.0932 c 0.05114,0 0.117213,-0.0099 0.146678,-0.02231 0.124093,-0.0517 0.266695,-0.09682 0.305156,-0.09682 0.02285,0 0.05867,-0.02137 0.07983,-0.04769 0.02116,-0.02623 0.0575,-0.0475 0.08048,-0.0475 0.03985,0 0.204947,-0.05002 0.321174,-0.09729 0.02947,-0.01148 0.06919,-0.02193 0.08814,-0.02193 0.01908,0 0.07593,-0.02679 0.126299,-0.05954 0.05049,-0.03276 0.118641,-0.05954 0.151559,-0.05954 0.03297,0 0.08398,-0.0099 0.113578,-0.02202 0.02947,-0.01148 0.120847,-0.04582 0.202767,-0.07457 0.08203,-0.02884 0.156504,-0.06719 0.165434,-0.08511 0.0091,-0.01792 0.04971,-0.03276 0.0906,-0.03276 0.04076,0 0.09826,-0.0099 0.127857,-0.02286 0.02947,-0.01325 0.117342,-0.04424 0.195277,-0.07027 0.07801,-0.02604 0.159528,-0.06402 0.181374,-0.08437 0.02181,-0.02025 0.0649,-0.03686 0.09515,-0.03686 0.0305,0 0.09476,-0.01484 0.142953,-0.03444 0.388567,-0.152606 0.427781,-0.153595 0.789868,-0.01978 0.08074,0.02986 0.167849,0.05413 0.194018,0.05413 0.02609,0 0.0553,0.01652 0.06477,0.035 0.01038,0.01904 0.04725,0.04125 0.08398,0.04918 0.06153,0.01325 0.206453,0.06066 0.33649,0.109975 0.02946,0.01148 0.07022,0.02025 0.0906,0.02025 0.02025,0 0.06581,0.0196 0.100728,0.0433 0.03505,0.0237 0.126299,0.06243 0.202675,0.08586 0.07658,0.02342 0.163111,0.05208 0.192603,0.06402 0.02946,0.01148 0.0736,0.02137 0.098,0.02137 0.0244,0 0.08567,0.02678 0.136216,0.05954 0.05036,0.03276 0.113189,0.05954 0.139462,0.05954 0.02635,0 0.05646,0.01148 0.06685,0.02389 0.01168,0.01325 0.05127,0.02389 0.0906,0.02389 0.03959,0 0.08905,0.01642 0.110074,0.03565 0.02116,0.0196 0.07113,0.03565 0.110852,0.03565 0.04076,0 0.08684,0.02072 0.105271,0.0475 0.01817,0.02623 0.05127,0.04769 0.0736,0.04769 0.03777,0 0.180998,0.04554 0.304376,0.09698 0.0697,0.02902 0.230947,0.02856 0.25426,-4.11e-4 0.03076,-0.03836 -0.03933,-0.591516 -0.08217,-0.649564 -0.02233,-0.02996 -0.05049,-0.172568 -0.06256,-0.316766 -0.05322,-0.630003 -0.07516,-0.813285 -0.100728,-0.845258 -0.01493,-0.01867 -0.03686,-0.132364 -0.04868,-0.252595 -0.01298,-0.120176 -0.03946,-0.273034 -0.06179,-0.339631 -0.05491,-0.164841 0.0039,-0.233295 0.619151,-0.71856 0.07645,-0.0602 0.161878,-0.130712 0.189954,-0.156553 0.02804,-0.02595 0.08346,-0.06934 0.123444,-0.09665 0.124351,-0.08521 0.65704,-0.535316 0.705353,-0.596015 0.02518,-0.03164 0.07035,-0.06374 0.100338,-0.07093 0.02998,-0.0075 0.05452,-0.02221 0.05452,-0.03313 0,-0.01148 0.09813,-0.09763 0.217746,-0.192876 0.268823,-0.213696 0.289501,-0.306537 0.07568,-0.339509 -0.06802,-0.0099 -0.179103,-0.03061 -0.247108,-0.0447 -0.06789,-0.01484 -0.213851,-0.03042 -0.324249,-0.03649 -0.110333,-0.0075 -0.213917,-0.02072 -0.230077,-0.03276 -0.01623,-0.01148 -0.122924,-0.02193 -0.237164,-0.02193 -0.140383,0 -0.222263,-0.01148 -0.252598,-0.03453 -0.04569,-0.03518 -0.400224,-0.09614 -0.762532,-0.13088 -0.110463,-0.0099 -0.239916,-0.03126 -0.287736,-0.0461 -0.0479,-0.01484 -0.165954,-0.02716 -0.262502,-0.02753 -0.102934,-4.01e-4 -0.199677,-0.01484 -0.23375,-0.03472 -0.03193,-0.01876 -0.119939,-0.04116 -0.195459,-0.04984 -0.103194,-0.01148 -0.145561,-0.02996 -0.170614,-0.07242 -0.01843,-0.03098 -0.04517,-0.05656 -0.05945,-0.05656 -0.01402,0 -0.02635,-0.01325 -0.027,-0.02977 -0.0012,-0.0392 -0.08723,-0.172681 -0.188332,-0.292837 -0.04439,-0.05282 -0.11228,-0.14933 -0.150455,-0.214453 -0.03816,-0.06496 -0.07983,-0.123647 -0.09255,-0.130236 -0.01298,-0.0075 -0.08489,-0.103078 -0.160438,-0.214481 -0.07555,-0.111449 -0.188527,-0.270644 -0.250936,-0.353843 -0.06244,-0.08315 -0.113578,-0.164963 -0.113578,-0.181808 0,-0.0168 -0.02142,-0.04414 -0.04738,-0.06085 -0.02609,-0.0168 -0.0954,-0.107502 -0.154181,-0.201677 -0.0588,-0.09419 -0.148651,-0.21589 -0.199702,-0.270261 -0.05101,-0.05432 -0.09307,-0.112933 -0.09307,-0.130059 0,-0.06682 -0.09995,-0.107007 -0.1743,-0.07018"
       stroke="none"
       fill="#04b3ea"
       fill-rule="evenodd"
       style="display:inline;mix-blend-mode:normal;fill:#4d4d4d;fill-opacity:1;stroke:#001900;stroke-width:0.0731826;stroke-opacity:1;enable-background:new" />
  </g>
</svg>
